DinishCondensed-Regular.ufo
<glyph name="ampersand" format="2">
  <advance width="531"/>
  <unicode hex="0026"/>
  <outline>
    <contour>
      <point x="480" y="69" type="line"/>
      <point x="480" y="-1" type="line"/>
      <point x="446" y="-1" type="line" smooth="yes"/>
      <point x="429" y="-1"/>
      <point x="415" y="2"/>
      <point x="406" y="9" type="curve" smooth="yes"/>
      <point x="397" y="15"/>
      <point x="387" y="27"/>
      <point x="377" y="45" type="curve" smooth="yes"/>
      <point x="356" y="79" type="line"/>
      <point x="335" y="48"/>
      <point x="312" y="25"/>
      <point x="287" y="11" type="curve" smooth="yes"/>
      <point x="262" y="-3"/>
      <point x="234" y="-10"/>
      <point x="202" y="-10" type="curve" smooth="yes"/>
      <point x="155" y="-10"/>
      <point x="119" y="5"/>
      <point x="92" y="34" type="curve" smooth="yes"/>
      <point x="65" y="63"/>
      <point x="51" y="102"/>
      <point x="51" y="151" type="curve" smooth="yes"/>
      <point x="51" y="186"/>
      <point x="61" y="222"/>
      <point x="81" y="257" type="curve" smooth="yes"/>
      <point x="100" y="292"/>
      <point x="132" y="335"/>
      <point x="176" y="384" type="curve"/>
      <point x="171" y="392" type="line" smooth="yes"/>
      <point x="143" y="439"/>
      <point x="124" y="476"/>
      <point x="113" y="502" type="curve" smooth="yes"/>
      <point x="102" y="527"/>
      <point x="96" y="552"/>
      <point x="96" y="575" type="curve" smooth="yes"/>
      <point x="96" y="617"/>
      <point x="109" y="651"/>
      <point x="135" y="678" type="curve" smooth="yes"/>
      <point x="161" y="704"/>
      <point x="194" y="717"/>
      <point x="234" y="717" type="curve" smooth="yes"/>
      <point x="275" y="717"/>
      <point x="308" y="704"/>
      <point x="334" y="678" type="curve" smooth="yes"/>
      <point x="360" y="652"/>
      <point x="373" y="618"/>
      <point x="373" y="575" type="curve" smooth="yes"/>
      <point x="373" y="544"/>
      <point x="365" y="514"/>
      <point x="350" y="485" type="curve" smooth="yes"/>
      <point x="334" y="455"/>
      <point x="306" y="419"/>
      <point x="265" y="376" type="curve"/>
      <point x="361" y="212" type="line"/>
      <point x="417" y="304" type="line"/>
      <point x="472" y="268" type="line"/>
      <point x="399" y="148" type="line"/>
      <point x="428" y="99" type="line" smooth="yes"/>
      <point x="435" y="88"/>
      <point x="441" y="80"/>
      <point x="447" y="76" type="curve" smooth="yes"/>
      <point x="453" y="71"/>
      <point x="460" y="69"/>
      <point x="469" y="69" type="curve" smooth="yes"/>
    </contour>
    <contour>
      <point x="318" y="142" type="curve"/>
      <point x="214" y="321" type="line"/>
      <point x="182" y="286"/>
      <point x="159" y="256"/>
      <point x="146" y="231" type="curve" smooth="yes"/>
      <point x="133" y="206"/>
      <point x="126" y="180"/>
      <point x="126" y="155" type="curve" smooth="yes"/>
      <point x="126" y="125"/>
      <point x="133" y="102"/>
      <point x="148" y="85" type="curve" smooth="yes"/>
      <point x="163" y="68"/>
      <point x="183" y="60"/>
      <point x="208" y="60" type="curve" smooth="yes"/>
      <point x="228" y="60"/>
      <point x="247" y="66"/>
      <point x="264" y="78" type="curve" smooth="yes"/>
      <point x="281" y="90"/>
      <point x="299" y="111"/>
    </contour>
    <contour>
      <point x="171" y="578" type="curve" smooth="yes"/>
      <point x="171" y="563"/>
      <point x="175" y="545"/>
      <point x="183" y="526" type="curve" smooth="yes"/>
      <point x="190" y="507"/>
      <point x="205" y="478"/>
      <point x="227" y="440" type="curve"/>
      <point x="255" y="472"/>
      <point x="274" y="498"/>
      <point x="284" y="517" type="curve" smooth="yes"/>
      <point x="294" y="536"/>
      <point x="299" y="557"/>
      <point x="299" y="578" type="curve" smooth="yes"/>
      <point x="299" y="602"/>
      <point x="293" y="621"/>
      <point x="282" y="634" type="curve" smooth="yes"/>
      <point x="271" y="647"/>
      <point x="255" y="653"/>
      <point x="236" y="653" type="curve" smooth="yes"/>
      <point x="216" y="653"/>
      <point x="200" y="646"/>
      <point x="189" y="633" type="curve" smooth="yes"/>
      <point x="177" y="619"/>
      <point x="171" y="601"/>
    </contour>
  </outline>
</glyph>
<glyph name="parenright" format="2">
  <advance width="265"/>
  <unicode hex="0029"/>
  <outline>
    <contour>
      <point x="143" y="336" type="curve" smooth="yes"/>
      <point x="143" y="406"/>
      <point x="135" y="477"/>
      <point x="120" y="549" type="curve" smooth="yes"/>
      <point x="104" y="620"/>
      <point x="81" y="690"/>
      <point x="51" y="758" type="curve"/>
      <point x="112" y="758" type="line"/>
      <point x="145" y="693"/>
      <point x="171" y="624"/>
      <point x="188" y="552" type="curve" smooth="yes"/>
      <point x="205" y="480"/>
      <point x="214" y="408"/>
      <point x="214" y="336" type="curve" smooth="yes"/>
      <point x="214" y="264"/>
      <point x="205" y="192"/>
      <point x="188" y="121" type="curve" smooth="yes"/>
      <point x="171" y="49"/>
      <point x="145" y="-20"/>
      <point x="112" y="-86" type="curve"/>
      <point x="51" y="-86" type="line"/>
      <point x="81" y="-19"/>
      <point x="104" y="50"/>
      <point x="120" y="122" type="curve" smooth="yes"/>
      <point x="135" y="194"/>
      <point x="143" y="265"/>
    </contour>
  </outline>
</glyph>
<glyph name="zero.tosf" format="2">
  <advance width="418"/>
  <unicode hex="0030"/>
  <outline>
    <contour>
      <point x="56" y="178" type="qcurve" smooth="yes"/>
      <point x="56" y="352" type="line" smooth="yes"/>
      <point x="56" y="538"/>
      <point x="210" y="539" type="qcurve" smooth="yes"/>
      <point x="362" y="539"/>
      <point x="362" y="352" type="qcurve" smooth="yes"/>
      <point x="362" y="178" type="line" smooth="yes"/>
      <point x="362" y="-9"/>
      <point x="210" y="-9" type="qcurve" smooth="yes"/>
      <point x="56" y="-9"/>
    </contour>
    <contour>
      <point x="288" y="117"/>
      <point x="288" y="189" type="qcurve" smooth="yes"/>
      <point x="288" y="340" type="line" smooth="yes"/>
      <point x="288" y="413"/>
      <point x="254" y="472"/>
      <point x="210" y="472" type="qcurve" smooth="yes"/>
      <point x="166" y="472"/>
      <point x="131" y="413"/>
      <point x="131" y="340" type="qcurve" smooth="yes"/>
      <point x="131" y="189" type="line" smooth="yes"/>
      <point x="131" y="116"/>
      <point x="166" y="57"/>
      <point x="210" y="57" type="qcurve" smooth="yes"/>
      <point x="254" y="57"/>
    </contour>
  </outline>
</glyph>
<glyph name="one.tosf" format="2">
  <advance width="418"/>
  <unicode hex="0031"/>
  <outline>
    <contour>
      <point x="268" y="453" type="line"/>
      <point x="116" y="361" type="line"/>
      <point x="116" y="447" type="line"/>
      <point x="267" y="539" type="line"/>
      <point x="342" y="539" type="line"/>
      <point x="342" y="0" type="line"/>
      <point x="268" y="0" type="line"/>
    </contour>
  </outline>
</glyph>
<glyph name="two.tosf" format="2">
  <advance width="418"/>
  <unicode hex="0032"/>
  <outline>
    <contour>
      <point x="57" y="59" type="line"/>
      <point x="253" y="314" type="line" smooth="yes"/>
      <point x="270" y="336"/>
      <point x="288" y="357"/>
      <point x="288" y="382" type="qcurve" smooth="yes"/>
      <point x="288" y="403" type="line" smooth="yes"/>
      <point x="288" y="436"/>
      <point x="248" y="471"/>
      <point x="207" y="471" type="qcurve" smooth="yes"/>
      <point x="172" y="471"/>
      <point x="131" y="436"/>
      <point x="131" y="403" type="qcurve" smooth="yes"/>
      <point x="131" y="394" type="line"/>
      <point x="57" y="394" type="line"/>
      <point x="57" y="429" type="line" smooth="yes"/>
      <point x="57" y="480"/>
      <point x="139" y="539"/>
      <point x="210" y="539" type="qcurve" smooth="yes"/>
      <point x="281" y="539"/>
      <point x="362" y="460"/>
      <point x="362" y="409" type="qcurve" smooth="yes"/>
      <point x="362" y="382" type="line" smooth="yes"/>
      <point x="362" y="350"/>
      <point x="339" y="320"/>
      <point x="315" y="289" type="qcurve" smooth="yes"/>
      <point x="143" y="67" type="line"/>
      <point x="359" y="67" type="line"/>
      <point x="359" y="0" type="line"/>
      <point x="57" y="0" type="line"/>
    </contour>
  </outline>
</glyph>
<glyph name="five.tosf" format="2">
  <advance width="418"/>
  <unicode hex="0035"/>
  <outline>
    <contour>
      <point x="59" y="-81"/>
      <point x="59" y="-3" type="qcurve" smooth="yes"/>
      <point x="59" y="15" type="line"/>
      <point x="130" y="15" type="line"/>
      <point x="130" y="-2" type="line" smooth="yes"/>
      <point x="130" y="-95"/>
      <point x="208" y="-96" type="qcurve" smooth="yes"/>
      <point x="248" y="-96"/>
      <point x="286" y="-47"/>
      <point x="286" y="6" type="qcurve" smooth="yes"/>
      <point x="286" y="120" type="line" smooth="yes"/>
      <point x="286" y="172"/>
      <point x="249" y="221"/>
      <point x="209" y="221" type="qcurve" smooth="yes"/>
      <point x="158" y="221"/>
      <point x="131" y="171" type="qcurve"/>
      <point x="67" y="171" type="line"/>
      <point x="67" y="529" type="line"/>
      <point x="354" y="529" type="line"/>
      <point x="354" y="459" type="line"/>
      <point x="137" y="459" type="line"/>
      <point x="137" y="254" type="line"/>
      <point x="151" y="269"/>
      <point x="195" y="288"/>
      <point x="223" y="288" type="qcurve" smooth="yes"/>
      <point x="360" y="288"/>
      <point x="360" y="121" type="qcurve" smooth="yes"/>
      <point x="360" y="9" type="line" smooth="yes"/>
      <point x="360" y="-162"/>
      <point x="209" y="-162" type="qcurve" smooth="yes"/>
      <point x="136" y="-162"/>
    </contour>
  </outline>
</glyph>
<glyph name="six" format="2">
  <advance width="404"/>
  <unicode hex="0036"/>
  <outline>
    <contour>
      <point x="48" y="79"/>
      <point x="48" y="155" type="qcurve" smooth="yes"/>
      <point x="48" y="257" type="line" smooth="yes"/>
      <point x="48" y="300"/>
      <point x="62" y="360"/>
      <point x="81" y="404" type="qcurve" smooth="yes"/>
      <point x="208" y="707" type="line"/>
      <point x="283" y="707" type="line"/>
      <point x="159" y="408" type="line"/>
      <point x="167" y="414"/>
      <point x="198" y="422"/>
      <point x="215" y="422" type="qcurve" smooth="yes"/>
      <point x="281" y="422"/>
      <point x="356" y="340"/>
      <point x="356" y="268" type="qcurve" smooth="yes"/>
      <point x="356" y="153" type="line" smooth="yes"/>
      <point x="356" y="78"/>
      <point x="272" y="-9"/>
      <point x="203" y="-9" type="qcurve" smooth="yes"/>
      <point x="131" y="-9"/>
    </contour>
    <contour>
      <point x="282" y="106"/>
      <point x="282" y="152" type="qcurve" smooth="yes"/>
      <point x="282" y="262" type="line" smooth="yes"/>
      <point x="282" y="307"/>
      <point x="241" y="356"/>
      <point x="203" y="356" type="qcurve" smooth="yes"/>
      <point x="165" y="356"/>
      <point x="123" y="309"/>
      <point x="123" y="266" type="qcurve" smooth="yes"/>
      <point x="123" y="153" type="line" smooth="yes"/>
      <point x="123" y="107"/>
      <point x="164" y="57"/>
      <point x="203" y="57" type="qcurve" smooth="yes"/>
      <point x="241" y="57"/>
    </contour>
  </outline>
</glyph>
<glyph name="eight" format="2">
  <advance width="412"/>
  <unicode hex="0038"/>
  <outline>
    <contour>
      <point x="53" y="157" type="curve" smooth="yes"/>
      <point x="53" y="234" type="line" smooth="yes"/>
      <point x="53" y="299"/>
      <point x="77" y="345"/>
      <point x="124" y="371" type="curve"/>
      <point x="103" y="382"/>
      <point x="86" y="399"/>
      <point x="75" y="422" type="curve" smooth="yes"/>
      <point x="63" y="444"/>
      <point x="57" y="469"/>
      <point x="57" y="497" type="curve" smooth="yes"/>
      <point x="57" y="562" type="line" smooth="yes"/>
      <point x="57" y="609"/>
      <point x="71" y="646"/>
      <point x="98" y="674" type="curve" smooth="yes"/>
      <point x="125" y="702"/>
      <point x="161" y="716"/>
      <point x="206" y="716" type="curve" smooth="yes"/>
      <point x="252" y="716"/>
      <point x="288" y="702"/>
      <point x="315" y="674" type="curve" smooth="yes"/>
      <point x="342" y="646"/>
      <point x="355" y="609"/>
      <point x="355" y="562" type="curve" smooth="yes"/>
      <point x="355" y="497" type="line" smooth="yes"/>
      <point x="355" y="468"/>
      <point x="349" y="443"/>
      <point x="338" y="421" type="curve" smooth="yes"/>
      <point x="327" y="398"/>
      <point x="310" y="382"/>
      <point x="289" y="371" type="curve"/>
      <point x="336" y="346"/>
      <point x="360" y="300"/>
      <point x="359" y="234" type="curve" smooth="yes"/>
      <point x="359" y="157" type="line" smooth="yes"/>
      <point x="359" y="105"/>
      <point x="346" y="64"/>
      <point x="319" y="35" type="curve" smooth="yes"/>
      <point x="292" y="6"/>
      <point x="255" y="-9"/>
      <point x="206" y="-9" type="curve" smooth="yes"/>
      <point x="158" y="-9"/>
      <point x="121" y="6"/>
      <point x="94" y="35" type="curve" smooth="yes"/>
      <point x="67" y="64"/>
      <point x="53" y="105"/>
    </contour>
    <contour>
      <point x="291" y="159" type="curve" smooth="yes"/>
      <point x="291" y="236" type="line" smooth="yes"/>
      <point x="291" y="305"/>
      <point x="263" y="339"/>
      <point x="206" y="339" type="curve" smooth="yes"/>
      <point x="177" y="339"/>
      <point x="156" y="330"/>
      <point x="143" y="312" type="curve" smooth="yes"/>
      <point x="129" y="293"/>
      <point x="122" y="268"/>
      <point x="122" y="236" type="curve" smooth="yes"/>
      <point x="122" y="159" type="line" smooth="yes"/>
      <point x="122" y="126"/>
      <point x="129" y="101"/>
      <point x="143" y="82" type="curve" smooth="yes"/>
      <point x="156" y="63"/>
      <point x="177" y="54"/>
      <point x="206" y="54" type="curve" smooth="yes"/>
      <point x="263" y="55"/>
      <point x="291" y="90"/>
    </contour>
    <contour>
      <point x="287" y="497" type="curve" smooth="yes"/>
      <point x="287" y="562" type="line" smooth="yes"/>
      <point x="287" y="590"/>
      <point x="280" y="612"/>
      <point x="266" y="628" type="curve" smooth="yes"/>
      <point x="251" y="644"/>
      <point x="231" y="652"/>
      <point x="206" y="652" type="curve" smooth="yes"/>
      <point x="181" y="652"/>
      <point x="161" y="644"/>
      <point x="147" y="628" type="curve" smooth="yes"/>
      <point x="133" y="611"/>
      <point x="126" y="589"/>
      <point x="126" y="562" type="curve" smooth="yes"/>
      <point x="126" y="497" type="line" smooth="yes"/>
      <point x="126" y="467"/>
      <point x="133" y="444"/>
      <point x="147" y="427" type="curve" smooth="yes"/>
      <point x="160" y="410"/>
      <point x="180" y="401"/>
      <point x="206" y="401" type="curve" smooth="yes"/>
      <point x="233" y="401"/>
      <point x="254" y="410"/>
      <point x="267" y="427" type="curve" smooth="yes"/>
      <point x="280" y="444"/>
      <point x="287" y="468"/>
    </contour>
  </outline>
</glyph>
<glyph name="colon" format="2">
  <advance width="163"/>
  <unicode hex="003A"/>
  <outline>
    <contour>
      <point x="42" y="91" type="line"/>
      <point x="122" y="91" type="line"/>
      <point x="122" y="0" type="line"/>
      <point x="42" y="0" type="line"/>
    </contour>
    <contour>
      <point x="42" y="437" type="line"/>
      <point x="122" y="437" type="line"/>
      <point x="122" y="346" type="line"/>
      <point x="42" y="346" type="line"/>
    </contour>
  </outline>
</glyph>
<glyph name="question" format="2">
  <advance width="371"/>
  <unicode hex="003F"/>
  <outline>
    <contour>
      <point x="145" y="252" type="line" smooth="yes"/>
      <point x="145" y="275"/>
      <point x="147" y="294"/>
      <point x="152" y="309" type="curve" smooth="yes"/>
      <point x="157" y="324"/>
      <point x="166" y="345"/>
      <point x="181" y="371" type="curve" smooth="yes"/>
      <point x="224" y="442" type="line" smooth="yes"/>
      <point x="237" y="464"/>
      <point x="246" y="483"/>
      <point x="251" y="498" type="curve" smooth="yes"/>
      <point x="256" y="513"/>
      <point x="259" y="531"/>
      <point x="259" y="552" type="curve" smooth="yes"/>
      <point x="259" y="617"/>
      <point x="234" y="650"/>
      <point x="183" y="650" type="curve" smooth="yes"/>
      <point x="154" y="650"/>
      <point x="133" y="640"/>
      <point x="122" y="621" type="curve" smooth="yes"/>
      <point x="111" y="601"/>
      <point x="105" y="569"/>
      <point x="105" y="524" type="curve"/>
      <point x="31" y="524" type="line"/>
      <point x="31" y="653"/>
      <point x="81" y="717"/>
      <point x="182" y="717" type="curve" smooth="yes"/>
      <point x="231" y="717"/>
      <point x="269" y="702"/>
      <point x="295" y="673" type="curve" smooth="yes"/>
      <point x="321" y="644"/>
      <point x="334" y="603"/>
      <point x="334" y="552" type="curve" smooth="yes"/>
      <point x="334" y="527"/>
      <point x="330" y="504"/>
      <point x="323" y="485" type="curve" smooth="yes"/>
      <point x="316" y="465"/>
      <point x="303" y="438"/>
      <point x="284" y="404" type="curve" smooth="yes"/>
      <point x="246" y="341" type="line" smooth="yes"/>
      <point x="235" y="322"/>
      <point x="228" y="307"/>
      <point x="225" y="295" type="curve" smooth="yes"/>
      <point x="222" y="282"/>
      <point x="220" y="266"/>
      <point x="220" y="247" type="curve" smooth="yes"/>
      <point x="220" y="182" type="line"/>
      <point x="145" y="182" type="line"/>
    </contour>
    <contour>
      <point x="142" y="99" type="line"/>
      <point x="222" y="99" type="line"/>
      <point x="222" y="0" type="line"/>
      <point x="142" y="0" type="line"/>
    </contour>
  </outline>
</glyph>
<glyph name="J" format="2">
  <advance width="269"/>
  <unicode hex="004A"/>
  <outline>
    <contour>
      <point x="25" y="67" type="line"/>
      <point x="54" y="67" type="line" smooth="yes"/>
      <point x="78" y="67"/>
      <point x="96" y="74"/>
      <point x="109" y="88" type="curve" smooth="yes"/>
      <point x="121" y="102"/>
      <point x="127" y="122"/>
      <point x="127" y="148" type="curve" smooth="yes"/>
      <point x="127" y="707" type="line"/>
      <point x="202" y="707" type="line"/>
      <point x="202" y="140" type="line" smooth="yes"/>
      <point x="202" y="94"/>
      <point x="190" y="59"/>
      <point x="166" y="36" type="curve" smooth="yes"/>
      <point x="141" y="12"/>
      <point x="106" y="0"/>
      <point x="60" y="0" type="curve" smooth="yes"/>
      <point x="25" y="0" type="line"/>
    </contour>
  </outline>
</glyph>
<glyph name="Q" format="2">
  <advance width="489"/>
  <unicode hex="0051"/>
  <outline>
    <contour>
      <point x="346" y="16" type="curve"/>
      <point x="403" y="-122" type="line"/>
      <point x="342" y="-146" type="line"/>
      <point x="284" y="-5" type="line"/>
      <point x="272" y="-7"/>
      <point x="259" y="-8"/>
      <point x="245" y="-8" type="curve" smooth="yes"/>
      <point x="187" y="-8"/>
      <point x="141" y="10"/>
      <point x="106" y="46" type="curve" smooth="yes"/>
      <point x="71" y="81"/>
      <point x="53" y="135"/>
      <point x="53" y="206" type="curve" smooth="yes"/>
      <point x="53" y="501" type="line" smooth="yes"/>
      <point x="53" y="574"/>
      <point x="71" y="628"/>
      <point x="106" y="663" type="curve" smooth="yes"/>
      <point x="141" y="698"/>
      <point x="187" y="716"/>
      <point x="245" y="716" type="curve" smooth="yes"/>
      <point x="303" y="716"/>
      <point x="349" y="698"/>
      <point x="384" y="663" type="curve" smooth="yes"/>
      <point x="419" y="627"/>
      <point x="436" y="573"/>
      <point x="436" y="501" type="curve" smooth="yes"/>
      <point x="436" y="206" type="line" smooth="yes"/>
      <point x="436" y="159"/>
      <point x="428" y="119"/>
      <point x="413" y="88" type="curve" smooth="yes"/>
      <point x="397" y="56"/>
      <point x="375" y="32"/>
    </contour>
    <contour>
      <point x="361" y="494" type="line" smooth="yes"/>
      <point x="361" y="546"/>
      <point x="351" y="585"/>
      <point x="332" y="610" type="curve" smooth="yes"/>
      <point x="312" y="635"/>
      <point x="283" y="648"/>
      <point x="246" y="648" type="curve" smooth="yes"/>
      <point x="207" y="648"/>
      <point x="177" y="635"/>
      <point x="158" y="610" type="curve" smooth="yes"/>
      <point x="138" y="585"/>
      <point x="128" y="546"/>
      <point x="128" y="494" type="curve" smooth="yes"/>
      <point x="128" y="205" type="line" smooth="yes"/>
      <point x="128" y="108"/>
      <point x="167" y="60"/>
      <point x="246" y="59" type="curve" smooth="yes"/>
      <point x="283" y="59"/>
      <point x="311" y="71"/>
      <point x="331" y="96" type="curve" smooth="yes"/>
      <point x="351" y="120"/>
      <point x="361" y="156"/>
      <point x="361" y="205" type="curve" smooth="yes"/>
    </contour>
  </outline>
</glyph>
<glyph name="R" format="2">
  <advance width="477"/>
  <unicode hex="0052"/>
  <outline>
    <contour>
      <point x="250" y="309" type="line"/>
      <point x="136" y="309" type="line"/>
      <point x="136" y="0" type="line"/>
      <point x="61" y="0" type="line"/>
      <point x="61" y="707" type="line"/>
      <point x="248" y="707" type="line" smooth="yes"/>
      <point x="310" y="707"/>
      <point x="355" y="691"/>
      <point x="384" y="658" type="curve" smooth="yes"/>
      <point x="412" y="625"/>
      <point x="426" y="574"/>
      <point x="426" y="507" type="curve" smooth="yes"/>
      <point x="426" y="406"/>
      <point x="391" y="344"/>
      <point x="322" y="321" type="curve"/>
      <point x="446" y="0" type="line"/>
      <point x="367" y="0" type="line"/>
    </contour>
    <contour>
      <point x="136" y="375" type="line"/>
      <point x="247" y="375" type="line" smooth="yes"/>
      <point x="283" y="375"/>
      <point x="309" y="386"/>
      <point x="326" y="408" type="curve" smooth="yes"/>
      <point x="343" y="430"/>
      <point x="351" y="463"/>
      <point x="351" y="507" type="curve" smooth="yes"/>
      <point x="351" y="552"/>
      <point x="343" y="585"/>
      <point x="327" y="607" type="curve" smooth="yes"/>
      <point x="311" y="629"/>
      <point x="284" y="640"/>
      <point x="247" y="640" type="curve" smooth="yes"/>
      <point x="136" y="640" type="line"/>
    </contour>
  </outline>
</glyph>
<glyph name="V" format="2">
  <advance width="433"/>
  <unicode hex="0056"/>
  <outline>
    <contour>
      <point x="9" y="707" type="line"/>
      <point x="89" y="707" type="line"/>
      <point x="217" y="117" type="line"/>
      <point x="344" y="707" type="line"/>
      <point x="424" y="707" type="line"/>
      <point x="253" y="0" type="line"/>
      <point x="181" y="0" type="line"/>
    </contour>
  </outline>
</glyph>
<glyph name="c" format="2">
  <advance width="418"/>
  <unicode hex="0063"/>
  <outline>
    <contour>
      <point x="51" y="172" type="curve" smooth="yes"/>
      <point x="51" y="357" type="line" smooth="yes"/>
      <point x="51" y="419"/>
      <point x="65" y="465"/>
      <point x="93" y="494" type="curve" smooth="yes"/>
      <point x="121" y="523"/>
      <point x="160" y="538"/>
      <point x="211" y="538" type="curve" smooth="yes"/>
      <point x="261" y="538"/>
      <point x="300" y="524"/>
      <point x="327" y="496" type="curve" smooth="yes"/>
      <point x="354" y="468"/>
      <point x="368" y="426"/>
      <point x="368" y="369" type="curve" smooth="yes"/>
      <point x="368" y="354" type="line"/>
      <point x="298" y="354" type="line"/>
      <point x="298" y="369" type="line" smooth="yes"/>
      <point x="298" y="440"/>
      <point x="269" y="475"/>
      <point x="212" y="475" type="curve" smooth="yes"/>
      <point x="182" y="475"/>
      <point x="159" y="466"/>
      <point x="144" y="447" type="curve" smooth="yes"/>
      <point x="129" y="428"/>
      <point x="121" y="395"/>
      <point x="121" y="349" type="curve" smooth="yes"/>
      <point x="121" y="180" type="line" smooth="yes"/>
      <point x="121" y="134"/>
      <point x="129" y="102"/>
      <point x="144" y="83" type="curve" smooth="yes"/>
      <point x="159" y="64"/>
      <point x="182" y="54"/>
      <point x="211" y="54" type="curve" smooth="yes"/>
      <point x="269" y="54"/>
      <point x="298" y="90"/>
      <point x="298" y="161" type="curve" smooth="yes"/>
      <point x="298" y="175" type="line"/>
      <point x="368" y="175" type="line"/>
      <point x="368" y="162" type="line" smooth="yes"/>
      <point x="368" y="105"/>
      <point x="354" y="63"/>
      <point x="327" y="35" type="curve" smooth="yes"/>
      <point x="300" y="6"/>
      <point x="261" y="-8"/>
      <point x="212" y="-8" type="curve" smooth="yes"/>
      <point x="161" y="-8"/>
      <point x="121" y="7"/>
      <point x="93" y="36" type="curve" smooth="yes"/>
      <point x="65" y="65"/>
      <point x="51" y="110"/>
    </contour>
  </outline>
</glyph>
<glyph name="e" format="2">
  <advance width="417"/>
  <unicode hex="0065"/>
  <outline>
    <contour>
      <point x="121" y="244" type="line"/>
      <point x="121" y="181" type="line" smooth="yes"/>
      <point x="121" y="134"/>
      <point x="129" y="101"/>
      <point x="145" y="82" type="curve" smooth="yes"/>
      <point x="161" y="62"/>
      <point x="184" y="52"/>
      <point x="213" y="52" type="curve" smooth="yes"/>
      <point x="269" y="52"/>
      <point x="297" y="87"/>
      <point x="297" y="158" type="curve" smooth="yes"/>
      <point x="297" y="162" type="line"/>
      <point x="366" y="162" type="line"/>
      <point x="366" y="159" type="line" smooth="yes"/>
      <point x="366" y="104"/>
      <point x="353" y="62"/>
      <point x="326" y="34" type="curve" smooth="yes"/>
      <point x="299" y="6"/>
      <point x="260" y="-8"/>
      <point x="211" y="-8" type="curve" smooth="yes"/>
      <point x="104" y="-8"/>
      <point x="51" y="55"/>
      <point x="51" y="180" type="curve" smooth="yes"/>
      <point x="51" y="351" type="line" smooth="yes"/>
      <point x="51" y="412"/>
      <point x="65" y="459"/>
      <point x="93" y="491" type="curve" smooth="yes"/>
      <point x="120" y="522"/>
      <point x="159" y="538"/>
      <point x="208" y="538" type="curve" smooth="yes"/>
      <point x="257" y="538"/>
      <point x="296" y="522"/>
      <point x="325" y="491" type="curve" smooth="yes"/>
      <point x="353" y="459"/>
      <point x="367" y="412"/>
      <point x="367" y="351" type="curve" smooth="yes"/>
      <point x="367" y="244" type="line"/>
    </contour>
    <contour>
      <point x="121" y="349" type="curve" smooth="yes"/>
      <point x="121" y="297" type="line"/>
      <point x="298" y="297" type="line"/>
      <point x="298" y="351" type="line" smooth="yes"/>
      <point x="298" y="396"/>
      <point x="290" y="428"/>
      <point x="275" y="447" type="curve" smooth="yes"/>
      <point x="260" y="466"/>
      <point x="238" y="475"/>
      <point x="209" y="475" type="curve" smooth="yes"/>
      <point x="180" y="475"/>
      <point x="159" y="465"/>
      <point x="144" y="446" type="curve" smooth="yes"/>
      <point x="129" y="427"/>
      <point x="121" y="394"/>
    </contour>
  </outline>
</glyph>
<glyph name="o" format="2">
  <advance width="418"/>
  <unicode hex="006F"/>
  <outline>
    <contour>
      <point x="51" y="79"/>
      <point x="51" y="172" type="qcurve" smooth="yes"/>
      <point x="51" y="357" type="line" smooth="yes"/>
      <point x="51" y="450"/>
      <point x="135" y="538"/>
      <point x="211" y="538" type="qcurve" smooth="yes"/>
      <point x="285" y="538"/>
      <point x="368" y="450"/>
      <point x="368" y="357" type="qcurve" smooth="yes"/>
      <point x="368" y="172" type="line" smooth="yes"/>
      <point x="368" y="80"/>
      <point x="285" y="-8"/>
      <point x="211" y="-8" type="qcurve" smooth="yes"/>
      <point x="135" y="-8"/>
    </contour>
    <contour>
      <point x="298" y="113"/>
      <point x="298" y="180" type="qcurve" smooth="yes"/>
      <point x="298" y="349" type="line" smooth="yes"/>
      <point x="298" y="417"/>
      <point x="253" y="475"/>
      <point x="210" y="475" type="qcurve" smooth="yes"/>
      <point x="167" y="475"/>
      <point x="121" y="418"/>
      <point x="121" y="349" type="qcurve" smooth="yes"/>
      <point x="121" y="180" type="line" smooth="yes"/>
      <point x="121" y="111"/>
      <point x="167" y="54"/>
      <point x="210" y="54" type="qcurve" smooth="yes"/>
      <point x="253" y="54"/>
    </contour>
  </outline>
</glyph>
<glyph name="y" format="2">
  <advance width="379"/>
  <unicode hex="0079"/>
  <outline>
    <contour>
      <point x="365" y="529" type="line"/>
      <point x="210" y="-50" type="line" smooth="yes"/>
      <point x="195" y="-109"/>
      <point x="121" y="-158"/>
      <point x="56" y="-158" type="qcurve" smooth="yes"/>
      <point x="46" y="-158" type="line"/>
      <point x="46" y="-95" type="line"/>
      <point x="63" y="-95" type="line" smooth="yes"/>
      <point x="103" y="-95"/>
      <point x="146" y="-65"/>
      <point x="155" y="-29" type="qcurve" smooth="yes"/>
      <point x="159" y="-12" type="line"/>
      <point x="15" y="529" type="line"/>
      <point x="91" y="529" type="line"/>
      <point x="191" y="125" type="line"/>
      <point x="289" y="529" type="line"/>
    </contour>
  </outline>
</glyph>
<glyph name="braceleft" format="2">
  <advance width="314"/>
  <unicode hex="007B"/>
  <outline>
    <contour>
      <point x="119" y="-29"/>
      <point x="119" y="30" type="qcurve" smooth="yes"/>
      <point x="119" y="228" type="line" smooth="yes"/>
      <point x="119" y="269"/>
      <point x="89" y="305"/>
      <point x="51" y="306" type="qcurve"/>
      <point x="51" y="371" type="line"/>
      <point x="89" y="372"/>
      <point x="119" y="408"/>
      <point x="119" y="451" type="qcurve" smooth="yes"/>
      <point x="119" y="642" type="line" smooth="yes"/>
      <point x="119" y="700"/>
      <point x="170" y="758"/>
      <point x="223" y="758" type="qcurve" smooth="yes"/>
      <point x="263" y="758" type="line"/>
      <point x="263" y="691" type="line"/>
      <point x="238" y="691" type="line" smooth="yes"/>
      <point x="193" y="691"/>
      <point x="193" y="641" type="qcurve" smooth="yes"/>
      <point x="193" y="467" type="line" smooth="yes"/>
      <point x="193" y="407"/>
      <point x="169" y="352"/>
      <point x="134" y="339" type="qcurve"/>
      <point x="169" y="324"/>
      <point x="193" y="270"/>
      <point x="193" y="210" type="qcurve" smooth="yes"/>
      <point x="193" y="31" type="line" smooth="yes"/>
      <point x="193" y="-19"/>
      <point x="238" y="-19" type="qcurve" smooth="yes"/>
      <point x="263" y="-19" type="line"/>
      <point x="263" y="-86" type="line"/>
      <point x="223" y="-86" type="line" smooth="yes"/>
      <point x="170" y="-86"/>
    </contour>
  </outline>
</glyph>
<glyph name="braceright" format="2">
  <advance width="314"/>
  <unicode hex="007D"/>
  <outline>
    <contour>
      <point x="51" y="-19" type="line"/>
      <point x="76" y="-19" type="line" smooth="yes"/>
      <point x="106" y="-19"/>
      <point x="121" y="-2"/>
      <point x="121" y="31" type="curve" smooth="yes"/>
      <point x="121" y="210" type="line" smooth="yes"/>
      <point x="121" y="250"/>
      <point x="125" y="279"/>
      <point x="133" y="297" type="curve" smooth="yes"/>
      <point x="140" y="315"/>
      <point x="156" y="329"/>
      <point x="180" y="339" type="curve"/>
      <point x="156" y="348"/>
      <point x="140" y="361"/>
      <point x="133" y="380" type="curve" smooth="yes"/>
      <point x="125" y="398"/>
      <point x="121" y="427"/>
      <point x="121" y="467" type="curve" smooth="yes"/>
      <point x="121" y="641" type="line" smooth="yes"/>
      <point x="121" y="674"/>
      <point x="106" y="691"/>
      <point x="76" y="691" type="curve" smooth="yes"/>
      <point x="51" y="691" type="line"/>
      <point x="51" y="758" type="line"/>
      <point x="91" y="758" type="line" smooth="yes"/>
      <point x="126" y="758"/>
      <point x="153" y="748"/>
      <point x="170" y="729" type="curve" smooth="yes"/>
      <point x="187" y="710"/>
      <point x="196" y="681"/>
      <point x="196" y="642" type="curve" smooth="yes"/>
      <point x="196" y="451" type="line" smooth="yes"/>
      <point x="196" y="422"/>
      <point x="201" y="402"/>
      <point x="211" y="390" type="curve" smooth="yes"/>
      <point x="220" y="378"/>
      <point x="238" y="372"/>
      <point x="263" y="371" type="curve"/>
      <point x="263" y="306" type="line"/>
      <point x="238" y="305"/>
      <point x="220" y="299"/>
      <point x="211" y="287" type="curve" smooth="yes"/>
      <point x="201" y="275"/>
      <point x="196" y="255"/>
      <point x="196" y="228" type="curve" smooth="yes"/>
      <point x="196" y="30" type="line" smooth="yes"/>
      <point x="196" y="-9"/>
      <point x="187" y="-38"/>
      <point x="170" y="-57" type="curve" smooth="yes"/>
      <point x="153" y="-76"/>
      <point x="126" y="-86"/>
      <point x="91" y="-86" type="curve" smooth="yes"/>
      <point x="51" y="-86" type="line"/>
    </contour>
  </outline>
</glyph>
<glyph name="cent" format="2">
  <advance width="418"/>
  <unicode hex="00A2"/>
  <outline>
    <contour>
      <point x="298" y="354" type="line"/>
      <point x="298" y="369" type="line" smooth="yes"/>
      <point x="298" y="428"/>
      <point x="279" y="462"/>
      <point x="241" y="471" type="curve"/>
      <point x="241" y="58" type="line"/>
      <point x="279" y="69"/>
      <point x="298" y="103"/>
      <point x="298" y="161" type="curve" smooth="yes"/>
      <point x="298" y="175" type="line"/>
      <point x="368" y="175" type="line"/>
      <point x="368" y="162" type="line" smooth="yes"/>
      <point x="368" y="111"/>
      <point x="357" y="72"/>
      <point x="335" y="44" type="curve" smooth="yes"/>
      <point x="312" y="16"/>
      <point x="281" y="-1"/>
      <point x="241" y="-6" type="curve"/>
      <point x="241" y="-102" type="line"/>
      <point x="186" y="-102" type="line"/>
      <point x="186" y="-7" type="line"/>
      <point x="96" y="3"/>
      <point x="51" y="63"/>
      <point x="51" y="172" type="curve" smooth="yes"/>
      <point x="51" y="357" type="line" smooth="yes"/>
      <point x="51" y="414"/>
      <point x="63" y="457"/>
      <point x="87" y="486" type="curve" smooth="yes"/>
      <point x="110" y="515"/>
      <point x="143" y="532"/>
      <point x="186" y="537" type="curve"/>
      <point x="186" y="627" type="line"/>
      <point x="241" y="627" type="line"/>
      <point x="241" y="536" type="line"/>
      <point x="281" y="531"/>
      <point x="312" y="514"/>
      <point x="335" y="486" type="curve" smooth="yes"/>
      <point x="357" y="458"/>
      <point x="368" y="419"/>
      <point x="368" y="369" type="curve" smooth="yes"/>
      <point x="368" y="354" type="line"/>
    </contour>
    <contour>
      <point x="186" y="56" type="curve"/>
      <point x="186" y="473" type="line"/>
      <point x="165" y="468"/>
      <point x="149" y="456"/>
      <point x="138" y="437" type="curve" smooth="yes"/>
      <point x="127" y="417"/>
      <point x="121" y="388"/>
      <point x="121" y="349" type="curve" smooth="yes"/>
      <point x="121" y="180" type="line" smooth="yes"/>
      <point x="121" y="142"/>
      <point x="127" y="113"/>
      <point x="138" y="93" type="curve" smooth="yes"/>
      <point x="149" y="73"/>
      <point x="165" y="61"/>
    </contour>
  </outline>
</glyph>
<glyph name="sterling" format="2">
  <advance width="392"/>
  <unicode hex="00A3"/>
  <outline>
    <contour>
      <point x="366" y="68" type="line"/>
      <point x="366" y="0" type="line"/>
      <point x="44" y="0" type="line"/>
      <point x="44" y="70" type="line"/>
      <point x="70" y="82"/>
      <point x="89" y="129"/>
      <point x="89" y="168" type="qcurve" smooth="yes"/>
      <point x="89" y="310" type="line"/>
      <point x="27" y="310" type="line"/>
      <point x="27" y="377" type="line"/>
      <point x="89" y="377" type="line"/>
      <point x="89" y="556" type="line" smooth="yes"/>
      <point x="89" y="632"/>
      <point x="158" y="717"/>
      <point x="224" y="717" type="qcurve" smooth="yes"/>
      <point x="290" y="717"/>
      <point x="357" y="634"/>
      <point x="357" y="558" type="qcurve"/>
      <point x="286" y="558" type="line"/>
      <point x="286" y="607"/>
      <point x="256" y="650"/>
      <point x="226" y="650" type="qcurve" smooth="yes"/>
      <point x="165" y="650"/>
      <point x="165" y="572" type="qcurve" smooth="yes"/>
      <point x="165" y="377" type="line"/>
      <point x="285" y="377" type="line"/>
      <point x="285" y="310" type="line"/>
      <point x="165" y="310" type="line"/>
      <point x="165" y="167" type="line" smooth="yes"/>
      <point x="165" y="133"/>
      <point x="146" y="85"/>
      <point x="126" y="68" type="qcurve"/>
    </contour>
  </outline>
</glyph>
<glyph name="yen" format="2">
  <advance width="398"/>
  <unicode hex="00A5"/>
  <outline>
    <contour>
      <point x="162" y="151" type="line"/>
      <point x="38" y="151" type="line"/>
      <point x="38" y="211" type="line"/>
      <point x="162" y="211" type="line"/>
      <point x="162" y="280" type="line"/>
      <point x="38" y="280" type="line"/>
      <point x="38" y="341" type="line"/>
      <point x="146" y="341" type="line"/>
      <point x="8" y="707" type="line"/>
      <point x="93" y="707" type="line"/>
      <point x="201" y="384" type="line"/>
      <point x="307" y="707" type="line"/>
      <point x="390" y="707" type="line"/>
      <point x="252" y="341" type="line"/>
      <point x="360" y="341" type="line"/>
      <point x="360" y="280" type="line"/>
      <point x="237" y="280" type="line"/>
      <point x="237" y="211" type="line"/>
      <point x="360" y="211" type="line"/>
      <point x="360" y="151" type="line"/>
      <point x="237" y="151" type="line"/>
      <point x="237" y="0" type="line"/>
      <point x="162" y="0" type="line"/>
    </contour>
  </outline>
</glyph>
<glyph name="ordfeminine" format="2">
  <advance width="301"/>
  <unicode hex="00AA"/>
  <outline>
    <contour>
      <point x="253" y="662" type="curve" smooth="yes"/>
      <point x="253" y="440" type="line"/>
      <point x="189" y="440" type="line"/>
      <point x="189" y="469" type="line"/>
      <point x="180" y="458"/>
      <point x="171" y="449"/>
      <point x="162" y="444" type="curve" smooth="yes"/>
      <point x="152" y="438"/>
      <point x="140" y="435"/>
      <point x="125" y="435" type="curve" smooth="yes"/>
      <point x="96" y="435"/>
      <point x="75" y="444"/>
      <point x="60" y="461" type="curve" smooth="yes"/>
      <point x="45" y="478"/>
      <point x="37" y="503"/>
      <point x="37" y="535" type="curve" smooth="yes"/>
      <point x="37" y="564"/>
      <point x="46" y="587"/>
      <point x="65" y="604" type="curve" smooth="yes"/>
      <point x="84" y="620"/>
      <point x="110" y="628"/>
      <point x="143" y="628" type="curve" smooth="yes"/>
      <point x="186" y="628" type="line"/>
      <point x="186" y="667" type="line" smooth="yes"/>
      <point x="186" y="695"/>
      <point x="173" y="709"/>
      <point x="146" y="709" type="curve" smooth="yes"/>
      <point x="134" y="709"/>
      <point x="125" y="706"/>
      <point x="118" y="699" type="curve" smooth="yes"/>
      <point x="111" y="692"/>
      <point x="108" y="683"/>
      <point x="108" y="672" type="curve" smooth="yes"/>
      <point x="108" y="667" type="line"/>
      <point x="46" y="667" type="line"/>
      <point x="46" y="670" type="line" smooth="yes"/>
      <point x="46" y="701"/>
      <point x="55" y="724"/>
      <point x="74" y="741" type="curve" smooth="yes"/>
      <point x="92" y="758"/>
      <point x="116" y="766"/>
      <point x="147" y="766" type="curve" smooth="yes"/>
      <point x="181" y="766"/>
      <point x="207" y="757"/>
      <point x="226" y="739" type="curve" smooth="yes"/>
      <point x="244" y="720"/>
      <point x="253" y="695"/>
    </contour>
    <contour>
      <point x="186" y="542" type="curve" smooth="yes"/>
      <point x="186" y="581" type="line"/>
      <point x="153" y="581" type="line" smooth="yes"/>
      <point x="136" y="581"/>
      <point x="124" y="578"/>
      <point x="116" y="571" type="curve" smooth="yes"/>
      <point x="107" y="564"/>
      <point x="103" y="552"/>
      <point x="103" y="537" type="curve" smooth="yes"/>
      <point x="103" y="508"/>
      <point x="116" y="494"/>
      <point x="142" y="494" type="curve" smooth="yes"/>
      <point x="156" y="494"/>
      <point x="167" y="498"/>
      <point x="175" y="507" type="curve" smooth="yes"/>
      <point x="182" y="515"/>
      <point x="186" y="527"/>
    </contour>
  </outline>
</glyph>
<glyph name="cedilla" format="2">
  <advance width="391"/>
  <unicode hex="00B8"/>
  <outline>
    <contour>
      <point x="221" y="12" type="line"/>
      <point x="288" y="12" type="line"/>
      <point x="228" y="-156" type="line"/>
      <point x="150" y="-156" type="line"/>
    </contour>
  </outline>
</glyph>
<glyph name="threequarters" format="2">
  <advance width="677"/>
  <unicode hex="00BE"/>
  <outline>
    <contour>
      <point x="183" y="272"/>
      <point x="135" y="272" type="qcurve" smooth="yes"/>
      <point x="85" y="272"/>
      <point x="31" y="327"/>
      <point x="31" y="374" type="qcurve" smooth="yes"/>
      <point x="31" y="399" type="line"/>
      <point x="98" y="399" type="line"/>
      <point x="98" y="376" type="line" smooth="yes"/>
      <point x="98" y="357"/>
      <point x="117" y="335"/>
      <point x="134" y="335" type="qcurve" smooth="yes"/>
      <point x="171" y="335"/>
      <point x="171" y="382" type="qcurve" smooth="yes"/>
      <point x="171" y="419" type="line" smooth="yes"/>
      <point x="171" y="445"/>
      <point x="152" y="468"/>
      <point x="130" y="468" type="qcurve" smooth="yes"/>
      <point x="112" y="468" type="line"/>
      <point x="112" y="530" type="line"/>
      <point x="130" y="530" type="line" smooth="yes"/>
      <point x="169" y="530"/>
      <point x="169" y="575" type="qcurve" smooth="yes"/>
      <point x="169" y="606" type="line" smooth="yes"/>
      <point x="169" y="651"/>
      <point x="134" y="651" type="qcurve" smooth="yes"/>
      <point x="117" y="651"/>
      <point x="99" y="630"/>
      <point x="99" y="610" type="qcurve" smooth="yes"/>
      <point x="99" y="587" type="line"/>
      <point x="31" y="587" type="line"/>
      <point x="31" y="613" type="line" smooth="yes"/>
      <point x="31" y="659"/>
      <point x="87" y="714"/>
      <point x="135" y="714" type="qcurve" smooth="yes"/>
      <point x="184" y="714"/>
      <point x="240" y="658"/>
      <point x="240" y="609" type="qcurve" smooth="yes"/>
      <point x="240" y="585" type="line" smooth="yes"/>
      <point x="240" y="554"/>
      <point x="218" y="514"/>
      <point x="195" y="503" type="qcurve"/>
      <point x="222" y="492"/>
      <point x="242" y="450"/>
      <point x="242" y="415" type="qcurve" smooth="yes"/>
      <point x="242" y="379" type="line" smooth="yes"/>
      <point x="242" y="330"/>
    </contour>
    <contour>
      <point x="509" y="707" type="line"/>
      <point x="255" y="0" type="line"/>
      <point x="190" y="0" type="line"/>
      <point x="444" y="707" type="line"/>
    </contour>
    <contour>
      <point x="652" y="76" type="line"/>
      <point x="621" y="76" type="line"/>
      <point x="621" y="0" type="line"/>
      <point x="549" y="0" type="line"/>
      <point x="549" y="76" type="line"/>
      <point x="412" y="76" type="line"/>
      <point x="412" y="139" type="line"/>
      <point x="506" y="428" type="line"/>
      <point x="578" y="428" type="line"/>
      <point x="483" y="139" type="line"/>
      <point x="549" y="139" type="line"/>
      <point x="549" y="238" type="line"/>
      <point x="621" y="238" type="line"/>
      <point x="621" y="139" type="line"/>
      <point x="652" y="139" type="line"/>
    </contour>
  </outline>
</glyph>
<glyph name="questiondown" format="2">
  <advance width="371"/>
  <unicode hex="00BF"/>
  <outline>
    <contour>
      <point x="38" y="-1" type="curve" smooth="yes"/>
      <point x="38" y="25"/>
      <point x="42" y="48"/>
      <point x="49" y="69" type="curve" smooth="yes"/>
      <point x="56" y="89"/>
      <point x="69" y="116"/>
      <point x="89" y="150" type="curve" smooth="yes"/>
      <point x="124" y="208" type="line" smooth="yes"/>
      <point x="135" y="228"/>
      <point x="143" y="244"/>
      <point x="147" y="256" type="curve" smooth="yes"/>
      <point x="150" y="268"/>
      <point x="152" y="284"/>
      <point x="152" y="304" type="curve" smooth="yes"/>
      <point x="152" y="340" type="line"/>
      <point x="226" y="340" type="line"/>
      <point x="226" y="300" type="line" smooth="yes"/>
      <point x="226" y="276"/>
      <point x="224" y="256"/>
      <point x="220" y="241" type="curve" smooth="yes"/>
      <point x="215" y="226"/>
      <point x="205" y="205"/>
      <point x="188" y="178" type="curve" smooth="yes"/>
      <point x="147" y="111" type="line" smooth="yes"/>
      <point x="134" y="90"/>
      <point x="126" y="71"/>
      <point x="121" y="56" type="curve" smooth="yes"/>
      <point x="116" y="40"/>
      <point x="113" y="21"/>
      <point x="113" y="-1" type="curve" smooth="yes"/>
      <point x="113" y="-68"/>
      <point x="138" y="-101"/>
      <point x="188" y="-101" type="curve" smooth="yes"/>
      <point x="217" y="-101"/>
      <point x="238" y="-91"/>
      <point x="249" y="-71" type="curve" smooth="yes"/>
      <point x="260" y="-52"/>
      <point x="266" y="-20"/>
      <point x="266" y="25" type="curve"/>
      <point x="341" y="25" type="line"/>
      <point x="340" y="-104"/>
      <point x="289" y="-168"/>
      <point x="189" y="-168" type="curve" smooth="yes"/>
      <point x="140" y="-168"/>
      <point x="103" y="-153"/>
      <point x="77" y="-123" type="curve" smooth="yes"/>
      <point x="51" y="-94"/>
      <point x="38" y="-53"/>
    </contour>
    <contour>
      <point x="148" y="529" type="line"/>
      <point x="228" y="529" type="line"/>
      <point x="228" y="430" type="line"/>
      <point x="148" y="430" type="line"/>
    </contour>
  </outline>
</glyph>
<glyph name="Aring" format="2">
  <advance width="472"/>
  <unicode hex="00C5"/>
  <outline>
    <contour>
      <point x="339" y="180" type="line"/>
      <point x="132" y="180" type="line"/>
      <point x="87" y="0" type="line"/>
      <point x="9" y="0" type="line"/>
      <point x="202" y="707" type="line"/>
      <point x="185" y="714"/>
      <point x="171" y="725"/>
      <point x="161" y="740" type="curve" smooth="yes"/>
      <point x="150" y="755"/>
      <point x="145" y="772"/>
      <point x="145" y="792" type="curve" smooth="yes"/>
      <point x="145" y="818"/>
      <point x="154" y="840"/>
      <point x="171" y="857" type="curve" smooth="yes"/>
      <point x="188" y="874"/>
      <point x="210" y="883"/>
      <point x="236" y="883" type="curve" smooth="yes"/>
      <point x="263" y="883"/>
      <point x="285" y="874"/>
      <point x="302" y="857" type="curve" smooth="yes"/>
      <point x="319" y="839"/>
      <point x="328" y="817"/>
      <point x="328" y="792" type="curve" smooth="yes"/>
      <point x="328" y="772"/>
      <point x="323" y="755"/>
      <point x="313" y="740" type="curve" smooth="yes"/>
      <point x="302" y="725"/>
      <point x="288" y="714"/>
      <point x="270" y="707" type="curve"/>
      <point x="463" y="0" type="line"/>
      <point x="384" y="0" type="line"/>
    </contour>
    <contour>
      <point x="323" y="245" type="line"/>
      <point x="236" y="594" type="line"/>
      <point x="148" y="245" type="line"/>
    </contour>
    <contour>
      <point x="236" y="740" type="curve" smooth="yes"/>
      <point x="251" y="740"/>
      <point x="264" y="745"/>
      <point x="273" y="755" type="curve" smooth="yes"/>
      <point x="282" y="764"/>
      <point x="286" y="777"/>
      <point x="286" y="792" type="curve" smooth="yes"/>
      <point x="286" y="807"/>
      <point x="281" y="820"/>
      <point x="272" y="830" type="curve" smooth="yes"/>
      <point x="263" y="839"/>
      <point x="251" y="844"/>
      <point x="236" y="844" type="curve" smooth="yes"/>
      <point x="221" y="844"/>
      <point x="209" y="839"/>
      <point x="200" y="829" type="curve" smooth="yes"/>
      <point x="191" y="819"/>
      <point x="186" y="807"/>
      <point x="186" y="792" type="curve" smooth="yes"/>
      <point x="186" y="777"/>
      <point x="191" y="764"/>
      <point x="200" y="755" type="curve" smooth="yes"/>
      <point x="209" y="745"/>
      <point x="221" y="740"/>
    </contour>
  </outline>
</glyph>
<glyph name="Ccedilla" format="2">
  <advance width="489"/>
  <unicode hex="00C7"/>
  <outline>
    <contour>
      <point x="361" y="501" type="line"/>
      <point x="361" y="508" type="line" smooth="yes"/>
      <point x="361" y="557"/>
      <point x="351" y="592"/>
      <point x="330" y="615" type="curve" smooth="yes"/>
      <point x="309" y="637"/>
      <point x="282" y="648"/>
      <point x="247" y="648" type="curve" smooth="yes"/>
      <point x="208" y="648"/>
      <point x="178" y="636"/>
      <point x="158" y="611" type="curve" smooth="yes"/>
      <point x="138" y="586"/>
      <point x="128" y="547"/>
      <point x="128" y="494" type="curve" smooth="yes"/>
      <point x="128" y="205" type="line" smooth="yes"/>
      <point x="128" y="108"/>
      <point x="168" y="60"/>
      <point x="247" y="59" type="curve" smooth="yes"/>
      <point x="282" y="59"/>
      <point x="310" y="70"/>
      <point x="331" y="93" type="curve" smooth="yes"/>
      <point x="351" y="116"/>
      <point x="361" y="150"/>
      <point x="361" y="197" type="curve" smooth="yes"/>
      <point x="361" y="206" type="line"/>
      <point x="434" y="206" type="line"/>
      <point x="434" y="196" type="line" smooth="yes"/>
      <point x="434" y="139"/>
      <point x="422" y="93"/>
      <point x="397" y="60" type="curve" smooth="yes"/>
      <point x="372" y="27"/>
      <point x="338" y="6"/>
      <point x="296" y="-3" type="curve"/>
      <point x="242" y="-156" type="line"/>
      <point x="164" y="-156" type="line"/>
      <point x="226" y="-7" type="line"/>
      <point x="173" y="-3"/>
      <point x="131" y="17"/>
      <point x="100" y="52" type="curve" smooth="yes"/>
      <point x="69" y="87"/>
      <point x="53" y="139"/>
      <point x="53" y="206" type="curve" smooth="yes"/>
      <point x="53" y="501" type="line" smooth="yes"/>
      <point x="53" y="573"/>
      <point x="71" y="627"/>
      <point x="106" y="663" type="curve" smooth="yes"/>
      <point x="141" y="698"/>
      <point x="188" y="716"/>
      <point x="246" y="716" type="curve" smooth="yes"/>
      <point x="302" y="716"/>
      <point x="348" y="699"/>
      <point x="383" y="665" type="curve" smooth="yes"/>
      <point x="418" y="630"/>
      <point x="436" y="579"/>
      <point x="436" y="510" type="curve" smooth="yes"/>
      <point x="436" y="501" type="line"/>
    </contour>
  </outline>
</glyph>
<glyph name="Oslash" format="2">
  <advance width="489"/>
  <unicode hex="00D8"/>
  <outline>
    <contour>
      <point x="400" y="641" type="line"/>
      <point x="436" y="588"/>
      <point x="436" y="501" type="qcurve" smooth="yes"/>
      <point x="436" y="206" type="line" smooth="yes"/>
      <point x="436" y="100"/>
      <point x="331" y="-8"/>
      <point x="245" y="-8" type="qcurve" smooth="yes"/>
      <point x="177" y="-8"/>
      <point x="129" y="26" type="qcurve"/>
      <point x="109" y="-20" type="line"/>
      <point x="54" y="-20" type="line"/>
      <point x="91" y="63" type="line"/>
      <point x="53" y="117"/>
      <point x="53" y="206" type="qcurve" smooth="yes"/>
      <point x="53" y="501" type="line" smooth="yes"/>
      <point x="53" y="610"/>
      <point x="158" y="716"/>
      <point x="245" y="716" type="qcurve" smooth="yes"/>
      <point x="317" y="716"/>
      <point x="364" y="681" type="qcurve"/>
      <point x="384" y="727" type="line"/>
      <point x="438" y="727" type="line"/>
    </contour>
    <contour>
      <point x="132" y="156" type="qcurve"/>
      <point x="332" y="609" type="line"/>
      <point x="303" y="648"/>
      <point x="246" y="648" type="qcurve" smooth="yes"/>
      <point x="187" y="648"/>
      <point x="128" y="572"/>
      <point x="128" y="494" type="qcurve" smooth="yes"/>
      <point x="128" y="205" type="line" smooth="yes"/>
      <point x="128" y="175"/>
    </contour>
    <contour>
      <point x="357" y="544" type="qcurve"/>
      <point x="159" y="94" type="line"/>
      <point x="188" y="59"/>
      <point x="246" y="59" type="qcurve" smooth="yes"/>
      <point x="301" y="59"/>
      <point x="361" y="132"/>
      <point x="361" y="205" type="qcurve" smooth="yes"/>
      <point x="361" y="494" type="line" smooth="yes"/>
      <point x="361" y="525"/>
    </contour>
  </outline>
</glyph>
<glyph name="Thorn" format="2">
  <advance width="450"/>
  <unicode hex="00DE"/>
  <outline>
    <contour>
      <point x="423" y="474"/>
      <point x="423" y="372" type="qcurve" smooth="yes"/>
      <point x="423" y="170"/>
      <point x="241" y="170" type="qcurve" smooth="yes"/>
      <point x="135" y="170" type="line"/>
      <point x="135" y="0" type="line"/>
      <point x="61" y="0" type="line"/>
      <point x="61" y="707" type="line"/>
      <point x="135" y="707" type="line"/>
      <point x="135" y="578" type="line"/>
      <point x="241" y="578" type="line" smooth="yes"/>
      <point x="335" y="578"/>
    </contour>
    <contour>
      <point x="348" y="300"/>
      <point x="348" y="372" type="qcurve" smooth="yes"/>
      <point x="348" y="445"/>
      <point x="294" y="511"/>
      <point x="237" y="511" type="qcurve" smooth="yes"/>
      <point x="135" y="511" type="line"/>
      <point x="135" y="236" type="line"/>
      <point x="237" y="236" type="line" smooth="yes"/>
      <point x="294" y="236"/>
    </contour>
  </outline>
</glyph>
<glyph name="ae" format="2">
  <advance width="648"/>
  <unicode hex="00E6"/>
  <outline>
    <contour>
      <point x="350" y="245" type="line"/>
      <point x="350" y="181" type="line" smooth="yes"/>
      <point x="350" y="134"/>
      <point x="358" y="101"/>
      <point x="374" y="82" type="curve" smooth="yes"/>
      <point x="390" y="62"/>
      <point x="413" y="52"/>
      <point x="442" y="52" type="curve" smooth="yes"/>
      <point x="469" y="52"/>
      <point x="490" y="61"/>
      <point x="505" y="78" type="curve" smooth="yes"/>
      <point x="520" y="95"/>
      <point x="527" y="122"/>
      <point x="527" y="158" type="curve" smooth="yes"/>
      <point x="527" y="162" type="line"/>
      <point x="596" y="162" type="line"/>
      <point x="596" y="159" type="line" smooth="yes"/>
      <point x="596" y="104"/>
      <point x="583" y="62"/>
      <point x="556" y="34" type="curve" smooth="yes"/>
      <point x="529" y="6"/>
      <point x="491" y="-8"/>
      <point x="442" y="-8" type="curve" smooth="yes"/>
      <point x="383" y="-8"/>
      <point x="340" y="12"/>
      <point x="312" y="51" type="curve"/>
      <point x="299" y="32"/>
      <point x="281" y="17"/>
      <point x="260" y="7" type="curve" smooth="yes"/>
      <point x="238" y="-3"/>
      <point x="213" y="-8"/>
      <point x="186" y="-8" type="curve" smooth="yes"/>
      <point x="139" y="-8"/>
      <point x="104" y="6"/>
      <point x="79" y="33" type="curve" smooth="yes"/>
      <point x="54" y="60"/>
      <point x="41" y="98"/>
      <point x="41" y="147" type="curve" smooth="yes"/>
      <point x="41" y="194"/>
      <point x="55" y="231"/>
      <point x="82" y="258" type="curve" smooth="yes"/>
      <point x="109" y="285"/>
      <point x="148" y="298"/>
      <point x="199" y="298" type="curve" smooth="yes"/>
      <point x="281" y="298" type="line"/>
      <point x="281" y="387" type="line" smooth="yes"/>
      <point x="281" y="446"/>
      <point x="254" y="476"/>
      <point x="199" y="476" type="curve" smooth="yes"/>
      <point x="174" y="476"/>
      <point x="154" y="469"/>
      <point x="141" y="456" type="curve" smooth="yes"/>
      <point x="127" y="442"/>
      <point x="120" y="423"/>
      <point x="120" y="398" type="curve" smooth="yes"/>
      <point x="120" y="390" type="line"/>
      <point x="54" y="390" type="line"/>
      <point x="54" y="399" type="line" smooth="yes"/>
      <point x="54" y="442"/>
      <point x="67" y="476"/>
      <point x="94" y="501" type="curve" smooth="yes"/>
      <point x="120" y="526"/>
      <point x="155" y="538"/>
      <point x="199" y="538" type="curve" smooth="yes"/>
      <point x="254" y="538"/>
      <point x="294" y="521"/>
      <point x="319" y="487" type="curve"/>
      <point x="346" y="520"/>
      <point x="386" y="537"/>
      <point x="438" y="538" type="curve" smooth="yes"/>
      <point x="487" y="538"/>
      <point x="526" y="522"/>
      <point x="555" y="491" type="curve" smooth="yes"/>
      <point x="583" y="459"/>
      <point x="597" y="412"/>
      <point x="597" y="351" type="curve" smooth="yes"/>
      <point x="597" y="245" type="line"/>
    </contour>
    <contour>
      <point x="281" y="246" type="line"/>
      <point x="206" y="246" type="line" smooth="yes"/>
      <point x="143" y="246"/>
      <point x="111" y="213"/>
      <point x="111" y="148" type="curve" smooth="yes"/>
      <point x="111" y="84"/>
      <point x="138" y="52"/>
      <point x="193" y="52" type="curve" smooth="yes"/>
      <point x="221" y="52"/>
      <point x="243" y="61"/>
      <point x="258" y="79" type="curve" smooth="yes"/>
      <point x="273" y="96"/>
      <point x="281" y="121"/>
      <point x="281" y="153" type="curve" smooth="yes"/>
    </contour>
    <contour>
      <point x="350" y="349" type="curve" smooth="yes"/>
      <point x="350" y="298" type="line"/>
      <point x="527" y="298" type="line"/>
      <point x="527" y="351" type="line" smooth="yes"/>
      <point x="527" y="396"/>
      <point x="520" y="428"/>
      <point x="505" y="447" type="curve" smooth="yes"/>
      <point x="490" y="466"/>
      <point x="468" y="475"/>
      <point x="439" y="475" type="curve" smooth="yes"/>
      <point x="410" y="475"/>
      <point x="388" y="466"/>
      <point x="373" y="447" type="curve" smooth="yes"/>
      <point x="358" y="428"/>
      <point x="350" y="395"/>
    </contour>
  </outline>
</glyph>
<glyph name="eth" format="2">
  <advance width="415"/>
  <unicode hex="00F0"/>
  <outline>
    <contour>
      <point x="365" y="287" type="curve" smooth="yes"/>
      <point x="365" y="184" type="line" smooth="yes"/>
      <point x="365" y="106"/>
      <point x="346" y="52"/>
      <point x="308" y="21" type="curve" smooth="yes"/>
      <point x="283" y="1"/>
      <point x="249" y="-9"/>
      <point x="207" y="-9" type="curve" smooth="yes"/>
      <point x="103" y="-9"/>
      <point x="51" y="55"/>
      <point x="51" y="182" type="curve" smooth="yes"/>
      <point x="51" y="298" type="line" smooth="yes"/>
      <point x="51" y="421"/>
      <point x="97" y="483"/>
      <point x="190" y="483" type="curve" smooth="yes"/>
      <point x="214" y="483"/>
      <point x="234" y="479"/>
      <point x="249" y="471" type="curve"/>
      <point x="191" y="569" type="line"/>
      <point x="105" y="542" type="line"/>
      <point x="89" y="594" type="line"/>
      <point x="164" y="617" type="line"/>
      <point x="111" y="710" type="line"/>
      <point x="188" y="710" type="line"/>
      <point x="229" y="639" type="line"/>
      <point x="312" y="666" type="line"/>
      <point x="328" y="613" type="line"/>
      <point x="257" y="591" type="line"/>
      <point x="296" y="523" type="line" smooth="yes"/>
      <point x="322" y="479"/>
      <point x="340" y="440"/>
      <point x="350" y="407" type="curve" smooth="yes"/>
      <point x="360" y="373"/>
      <point x="365" y="333"/>
    </contour>
    <contour>
      <point x="295" y="306" type="line" smooth="yes"/>
      <point x="295" y="383"/>
      <point x="266" y="421"/>
      <point x="208" y="421" type="curve" smooth="yes"/>
      <point x="150" y="421"/>
      <point x="121" y="383"/>
      <point x="121" y="307" type="curve" smooth="yes"/>
      <point x="121" y="170" type="line" smooth="yes"/>
      <point x="121" y="93"/>
      <point x="150" y="54"/>
      <point x="208" y="54" type="curve" smooth="yes"/>
      <point x="266" y="54"/>
      <point x="295" y="93"/>
      <point x="295" y="170" type="curve" smooth="yes"/>
    </contour>
  </outline>
</glyph>
<glyph name="divide" format="2">
  <advance width="430"/>
  <unicode hex="00F7"/>
  <outline>
    <contour>
      <point x="167" y="401"/>
      <point x="167" y="422" type="qcurve" smooth="yes"/>
      <point x="167" y="442"/>
      <point x="196" y="470"/>
      <point x="216" y="470" type="qcurve" smooth="yes"/>
      <point x="236" y="470"/>
      <point x="264" y="442"/>
      <point x="264" y="422" type="qcurve" smooth="yes"/>
      <point x="264" y="402"/>
      <point x="237" y="373"/>
      <point x="216" y="373" type="qcurve" smooth="yes"/>
      <point x="196" y="373"/>
    </contour>
    <contour>
      <point x="41" y="316" type="line"/>
      <point x="390" y="316" type="line"/>
      <point x="390" y="249" type="line"/>
      <point x="41" y="249" type="line"/>
    </contour>
    <contour>
      <point x="167" y="127"/>
      <point x="167" y="147" type="qcurve" smooth="yes"/>
      <point x="167" y="167"/>
      <point x="196" y="196"/>
      <point x="216" y="196" type="qcurve" smooth="yes"/>
      <point x="236" y="196"/>
      <point x="264" y="168"/>
      <point x="264" y="147" type="qcurve" smooth="yes"/>
      <point x="264" y="127"/>
      <point x="237" y="98"/>
      <point x="216" y="98" type="qcurve" smooth="yes"/>
      <point x="196" y="98"/>
    </contour>
  </outline>
</glyph>
<glyph name="Iogonek" format="2">
  <advance width="208"/>
  <unicode hex="012E"/>
  <outline>
    <component base="I" xOffset="0" yOffset="0"/>
    <contour>
      <point x="87" y="12" type="line"/>
      <point x="140" y="12" type="line"/>
      <point x="140" y="0" type="line"/>
      <point x="76" y="-58" type="line"/>
      <point x="90" y="-83"/>
      <point x="116" y="-94"/>
      <point x="140" y="-95" type="curve"/>
      <point x="140" y="-157" type="line"/>
      <point x="104" y="-156"/>
      <point x="74" y="-139"/>
      <point x="53" y="-106" type="curve" smooth="yes"/>
      <point x="41" y="-89"/>
      <point x="34" y="-67"/>
      <point x="28" y="-40" type="curve"/>
    </contour>
  </outline>
</glyph>
<glyph name="iogonek" format="2">
  <advance width="203"/>
  <unicode hex="012F"/>
  <outline>
    <component base="i" xOffset="0" yOffset="0"/>
    <contour>
      <point x="86" y="12" type="line"/>
      <point x="136" y="12" type="line"/>
      <point x="136" y="0" type="line"/>
      <point x="72" y="-58" type="line"/>
      <point x="86" y="-83"/>
      <point x="112" y="-94"/>
      <point x="136" y="-95" type="curve"/>
      <point x="136" y="-157" type="line"/>
      <point x="100" y="-156"/>
      <point x="70" y="-139"/>
      <point x="49" y="-106" type="curve" smooth="yes"/>
      <point x="37" y="-89"/>
      <point x="30" y="-67"/>
      <point x="24" y="-40" type="curve"/>
    </contour>
  </outline>
</glyph>
<glyph name="IJ" format="2">
  <advance width="491"/>
  <unicode hex="0132"/>
  <outline>
    <contour>
      <point x="165" y="81"/>
      <point x="199" y="59"/>
      <point x="246" y="59" type="curve" smooth="yes"/>
      <point x="280" y="59"/>
      <point x="307" y="70"/>
      <point x="326" y="92" type="curve" smooth="yes"/>
      <point x="345" y="114"/>
      <point x="355" y="145"/>
      <point x="355" y="184" type="curve" smooth="yes"/>
      <point x="355" y="707" type="line"/>
      <point x="430" y="707" type="line"/>
      <point x="430" y="180" type="line" smooth="yes"/>
      <point x="430" y="123"/>
      <point x="413" y="78"/>
      <point x="379" y="44" type="curve" smooth="yes"/>
      <point x="345" y="9"/>
      <point x="301" y="-8"/>
      <point x="246" y="-8" type="curve" smooth="yes"/>
      <point x="211" y="-8"/>
      <point x="179" y="0"/>
      <point x="151" y="16" type="curve" smooth="yes"/>
      <point x="111" y="37"/>
      <point x="83" y="75"/>
      <point x="69" y="119" type="curve"/>
      <point x="148" y="119" type="line"/>
    </contour>
    <contour>
      <point x="61" y="707" type="line"/>
      <point x="136" y="707" type="line"/>
      <point x="136" y="254" type="line"/>
      <point x="61" y="254" type="line"/>
    </contour>
  </outline>
</glyph>
<glyph name="ij" format="2">
  <advance width="410"/>
  <unicode hex="0133"/>
  <outline>
    <contour>
      <point x="60" y="706" type="line"/>
      <point x="130" y="706" type="line"/>
      <point x="130" y="613" type="line"/>
      <point x="60" y="613" type="line"/>
    </contour>
    <contour>
      <point x="281" y="706" type="line"/>
      <point x="350" y="706" type="line"/>
      <point x="350" y="613" type="line"/>
      <point x="281" y="613" type="line"/>
    </contour>
    <contour>
      <point x="66" y="-32" type="line"/>
      <point x="67" y="-73"/>
      <point x="81" y="-106"/>
      <point x="107" y="-130" type="curve" smooth="yes"/>
      <point x="132" y="-154"/>
      <point x="158" y="-166"/>
      <point x="205" y="-166" type="curve" smooth="yes"/>
      <point x="258" y="-166"/>
      <point x="297" y="-150"/>
      <point x="322" y="-117" type="curve" smooth="yes"/>
      <point x="347" y="-84"/>
      <point x="350" y="-40"/>
      <point x="350" y="16" type="curve" smooth="yes"/>
      <point x="350" y="529" type="line"/>
      <point x="281" y="529" type="line"/>
      <point x="281" y="220" type="line" smooth="yes"/>
      <point x="281" y="138"/>
      <point x="261" y="105"/>
      <point x="203" y="105" type="curve" smooth="yes"/>
      <point x="149" y="105"/>
      <point x="130" y="130"/>
      <point x="130" y="220" type="curve" smooth="yes"/>
      <point x="130" y="529" type="line"/>
      <point x="60" y="529" type="line"/>
      <point x="60" y="212" type="line" smooth="yes"/>
      <point x="60" y="152"/>
      <point x="73" y="107"/>
      <point x="99" y="78" type="curve" smooth="yes"/>
      <point x="124" y="48"/>
      <point x="148" y="43"/>
      <point x="189" y="43" type="curve" smooth="yes"/>
      <point x="234" y="43"/>
      <point x="271" y="48"/>
      <point x="281" y="88" type="curve"/>
      <point x="281" y="10" type="line" smooth="yes"/>
      <point x="281" y="-69"/>
      <point x="264" y="-105"/>
      <point x="205" y="-105" type="curve" smooth="yes"/>
      <point x="154" y="-105"/>
      <point x="135" y="-77"/>
      <point x="133" y="-32" type="curve"/>
    </contour>
  </outline>
</glyph>
<glyph name="Lcaron" format="2">
  <advance width="400"/>
  <unicode hex="013D"/>
  <outline>
    <component base="L" xOffset="0" yOffset="0"/>
    <component base="caroncmb.alt" xOffset="240"/>
    <contour>
      <point x="61" y="707" type="line"/>
      <point x="136" y="707" type="line"/>
      <point x="136" y="67" type="line"/>
      <point x="376" y="67" type="line"/>
      <point x="376" y="0" type="line"/>
      <point x="61" y="0" type="line"/>
    </contour>
  </outline>
</glyph>
<glyph name="Lslash" format="2">
  <advance width="400"/>
  <unicode hex="0141"/>
  <outline>
    <component base="L" xOffset="0" yOffset="0"/>
    <contour>
      <point x="22" y="350" type="line"/>
      <point x="23" y="408" type="line"/>
      <point x="209" y="478" type="line"/>
      <point x="209" y="420" type="line"/>
    </contour>
  </outline>
</glyph>
<glyph name="oe" format="2">
  <advance width="665"/>
  <unicode hex="0153"/>
  <outline>
    <contour>
      <point x="368" y="245" type="line"/>
      <point x="368" y="181" type="line" smooth="yes"/>
      <point x="368" y="134"/>
      <point x="376" y="101"/>
      <point x="392" y="82" type="curve" smooth="yes"/>
      <point x="408" y="62"/>
      <point x="431" y="52"/>
      <point x="460" y="52" type="curve" smooth="yes"/>
      <point x="487" y="52"/>
      <point x="508" y="61"/>
      <point x="523" y="78" type="curve" smooth="yes"/>
      <point x="538" y="95"/>
      <point x="545" y="122"/>
      <point x="545" y="158" type="curve" smooth="yes"/>
      <point x="545" y="162" type="line"/>
      <point x="613" y="162" type="line"/>
      <point x="613" y="159" type="line" smooth="yes"/>
      <point x="613" y="104"/>
      <point x="599" y="62"/>
      <point x="572" y="34" type="curve" smooth="yes"/>
      <point x="545" y="6"/>
      <point x="507" y="-8"/>
      <point x="458" y="-8" type="curve" smooth="yes"/>
      <point x="402" y="-8"/>
      <point x="361" y="10"/>
      <point x="334" y="45" type="curve"/>
      <point x="307" y="10"/>
      <point x="266" y="-8"/>
      <point x="211" y="-8" type="curve" smooth="yes"/>
      <point x="160" y="-8"/>
      <point x="121" y="7"/>
      <point x="93" y="36" type="curve" smooth="yes"/>
      <point x="65" y="65"/>
      <point x="51" y="110"/>
      <point x="51" y="172" type="curve" smooth="yes"/>
      <point x="51" y="357" type="line" smooth="yes"/>
      <point x="51" y="419"/>
      <point x="65" y="465"/>
      <point x="93" y="494" type="curve" smooth="yes"/>
      <point x="121" y="523"/>
      <point x="160" y="538"/>
      <point x="211" y="538" type="curve" smooth="yes"/>
      <point x="268" y="538"/>
      <point x="309" y="520"/>
      <point x="334" y="483" type="curve"/>
      <point x="361" y="519"/>
      <point x="402" y="537"/>
      <point x="456" y="538" type="curve" smooth="yes"/>
      <point x="505" y="538"/>
      <point x="544" y="522"/>
      <point x="572" y="491" type="curve" smooth="yes"/>
      <point x="600" y="459"/>
      <point x="614" y="412"/>
      <point x="614" y="351" type="curve" smooth="yes"/>
      <point x="614" y="245" type="line"/>
    </contour>
    <contour>
      <point x="298" y="180" type="curve" smooth="yes"/>
      <point x="298" y="349" type="line" smooth="yes"/>
      <point x="298" y="394"/>
      <point x="291" y="427"/>
      <point x="276" y="446" type="curve" smooth="yes"/>
      <point x="261" y="465"/>
      <point x="239" y="475"/>
      <point x="210" y="475" type="curve" smooth="yes"/>
      <point x="181" y="475"/>
      <point x="159" y="466"/>
      <point x="144" y="447" type="curve" smooth="yes"/>
      <point x="129" y="428"/>
      <point x="121" y="395"/>
      <point x="121" y="349" type="curve" smooth="yes"/>
      <point x="121" y="180" type="line" smooth="yes"/>
      <point x="121" y="134"/>
      <point x="129" y="102"/>
      <point x="144" y="83" type="curve" smooth="yes"/>
      <point x="159" y="64"/>
      <point x="181" y="54"/>
      <point x="210" y="54" type="curve" smooth="yes"/>
      <point x="239" y="54"/>
      <point x="261" y="64"/>
      <point x="276" y="84" type="curve" smooth="yes"/>
      <point x="291" y="103"/>
      <point x="298" y="135"/>
    </contour>
    <contour>
      <point x="368" y="349" type="curve" smooth="yes"/>
      <point x="368" y="298" type="line"/>
      <point x="545" y="298" type="line"/>
      <point x="545" y="351" type="line" smooth="yes"/>
      <point x="545" y="396"/>
      <point x="538" y="428"/>
      <point x="523" y="447" type="curve" smooth="yes"/>
      <point x="508" y="466"/>
      <point x="486" y="475"/>
      <point x="457" y="475" type="curve" smooth="yes"/>
      <point x="428" y="475"/>
      <point x="406" y="466"/>
      <point x="391" y="447" type="curve" smooth="yes"/>
      <point x="376" y="428"/>
      <point x="368" y="395"/>
    </contour>
  </outline>
</glyph>
<glyph name="florin" format="2">
  <advance width="392"/>
  <unicode hex="0192"/>
  <outline>
    <contour>
      <point x="10" y="-89" type="line"/>
      <point x="31" y="-89" type="line" smooth="yes"/>
      <point x="50" y="-89"/>
      <point x="65" y="-86"/>
      <point x="76" y="-81" type="curve" smooth="yes"/>
      <point x="86" y="-76"/>
      <point x="94" y="-67"/>
      <point x="101" y="-54" type="curve" smooth="yes"/>
      <point x="107" y="-41"/>
      <point x="112" y="-21"/>
      <point x="116" y="5" type="curve" smooth="yes"/>
      <point x="165" y="356" type="line"/>
      <point x="90" y="356" type="line"/>
      <point x="90" y="422" type="line"/>
      <point x="174" y="422" type="line"/>
      <point x="191" y="549" type="line" smooth="yes"/>
      <point x="199" y="604"/>
      <point x="215" y="645"/>
      <point x="240" y="670" type="curve" smooth="yes"/>
      <point x="264" y="695"/>
      <point x="301" y="707"/>
      <point x="351" y="707" type="curve" smooth="yes"/>
      <point x="382" y="707" type="line"/>
      <point x="382" y="640" type="line"/>
      <point x="351" y="640" type="line" smooth="yes"/>
      <point x="332" y="640"/>
      <point x="317" y="638"/>
      <point x="307" y="633" type="curve" smooth="yes"/>
      <point x="296" y="628"/>
      <point x="288" y="619"/>
      <point x="282" y="606" type="curve" smooth="yes"/>
      <point x="275" y="593"/>
      <point x="270" y="573"/>
      <point x="266" y="548" type="curve" smooth="yes"/>
      <point x="249" y="422" type="line"/>
      <point x="337" y="422" type="line"/>
      <point x="337" y="356" type="line"/>
      <point x="240" y="356" type="line"/>
      <point x="189" y="3" type="line" smooth="yes"/>
      <point x="182" y="-53"/>
      <point x="166" y="-93"/>
      <point x="141" y="-118" type="curve" smooth="yes"/>
      <point x="116" y="-143"/>
      <point x="79" y="-156"/>
      <point x="30" y="-156" type="curve" smooth="yes"/>
      <point x="10" y="-156" type="line"/>
    </contour>
  </outline>
</glyph>
<glyph name="breve" format="2">
  <advance width="391"/>
  <unicode hex="02D8"/>
  <outline>
    <contour>
      <point x="195" y="573" type="curve" smooth="yes"/>
      <point x="112" y="573"/>
      <point x="68" y="621"/>
      <point x="68" y="707" type="curve" smooth="yes"/>
      <point x="68" y="725" type="line"/>
      <point x="134" y="725" type="line"/>
      <point x="134" y="707" type="line" smooth="yes"/>
      <point x="134" y="657"/>
      <point x="154" y="633"/>
      <point x="195" y="633" type="curve" smooth="yes"/>
      <point x="236" y="633"/>
      <point x="256" y="657"/>
      <point x="256" y="707" type="curve" smooth="yes"/>
      <point x="256" y="725" type="line"/>
      <point x="322" y="725" type="line"/>
      <point x="322" y="707" type="line" smooth="yes"/>
      <point x="322" y="621"/>
      <point x="278" y="573"/>
    </contour>
  </outline>
</glyph>
<glyph name="ring" format="2">
  <advance width="524"/>
  <unicode hex="02DA"/>
  <outline>
    <contour>
      <point x="171" y="660" type="curve" smooth="yes"/>
      <point x="171" y="686"/>
      <point x="180" y="708"/>
      <point x="197" y="726" type="curve" smooth="yes"/>
      <point x="214" y="743"/>
      <point x="235" y="752"/>
      <point x="261" y="752" type="curve" smooth="yes"/>
      <point x="288" y="752"/>
      <point x="310" y="743"/>
      <point x="327" y="726" type="curve" smooth="yes"/>
      <point x="344" y="708"/>
      <point x="353" y="686"/>
      <point x="353" y="660" type="curve" smooth="yes"/>
      <point x="353" y="634"/>
      <point x="344" y="612"/>
      <point x="327" y="595" type="curve" smooth="yes"/>
      <point x="310" y="578"/>
      <point x="288" y="569"/>
      <point x="261" y="569" type="curve" smooth="yes"/>
      <point x="235" y="569"/>
      <point x="214" y="578"/>
      <point x="197" y="596" type="curve" smooth="yes"/>
      <point x="180" y="613"/>
      <point x="171" y="635"/>
    </contour>
    <contour>
      <point x="311" y="660" type="curve" smooth="yes"/>
      <point x="311" y="675"/>
      <point x="307" y="688"/>
      <point x="298" y="698" type="curve" smooth="yes"/>
      <point x="289" y="708"/>
      <point x="276" y="713"/>
      <point x="261" y="713" type="curve" smooth="yes"/>
      <point x="246" y="713"/>
      <point x="235" y="708"/>
      <point x="226" y="698" type="curve" smooth="yes"/>
      <point x="217" y="688"/>
      <point x="212" y="675"/>
      <point x="212" y="660" type="curve" smooth="yes"/>
      <point x="212" y="645"/>
      <point x="217" y="632"/>
      <point x="226" y="623" type="curve" smooth="yes"/>
      <point x="235" y="614"/>
      <point x="247" y="609"/>
      <point x="261" y="609" type="curve" smooth="yes"/>
      <point x="276" y="609"/>
      <point x="289" y="614"/>
      <point x="298" y="624" type="curve" smooth="yes"/>
      <point x="307" y="633"/>
      <point x="311" y="645"/>
    </contour>
  </outline>
</glyph>
<glyph name="ogonek" format="2">
  <advance width="391"/>
  <unicode hex="02DB"/>
  <outline>
    <contour>
      <point x="236" y="12" type="line"/>
      <point x="266" y="12" type="line"/>
      <point x="266" y="0" type="line"/>
      <point x="202" y="-58" type="line"/>
      <point x="216" y="-83"/>
      <point x="242" y="-94"/>
      <point x="266" y="-95" type="curve"/>
      <point x="266" y="-157" type="line"/>
      <point x="230" y="-156"/>
      <point x="200" y="-139"/>
      <point x="179" y="-106" type="curve" smooth="yes"/>
      <point x="167" y="-89"/>
      <point x="160" y="-67"/>
      <point x="154" y="-40" type="curve"/>
    </contour>
  </outline>
</glyph>
<glyph name="acutecomb" format="2">
  <unicode hex="0301"/>
  <anchor x="0" y="529" name="_top"/>
  <outline>
    <contour>
      <point x="28" y="722" type="line"/>
      <point x="103" y="722" type="line"/>
      <point x="-8" y="590" type="line"/>
      <point x="-66" y="590" type="line"/>
    </contour>
  </outline>
</glyph>
<glyph name="Njecyr" format="2">
  <advance width="769"/>
  <unicode hex="040A"/>
  <outline>
    <component base="H"/>
    <contour>
      <point x="406" y="0" type="line"/>
      <point x="535" y="0" type="line" smooth="yes"/>
      <point x="657" y="0"/>
      <point x="716" y="67"/>
      <point x="716" y="206" type="curve" smooth="yes"/>
      <point x="716" y="341"/>
      <point x="656" y="408"/>
      <point x="535" y="408" type="curve" smooth="yes"/>
      <point x="406" y="408" type="line"/>
      <point x="406" y="341" type="line"/>
      <point x="531" y="341" type="line" smooth="yes"/>
      <point x="607" y="341"/>
      <point x="642" y="299"/>
      <point x="642" y="206" type="curve" smooth="yes"/>
      <point x="642" y="109"/>
      <point x="608" y="67"/>
      <point x="531" y="67" type="curve" smooth="yes"/>
      <point x="406" y="67" type="line"/>
    </contour>
  </outline>
</glyph>
<glyph name="Becyr" format="2">
  <advance width="479"/>
  <unicode hex="0411"/>
  <outline>
    <contour>
      <point x="116" y="0" type="line"/>
      <point x="245" y="0" type="line" smooth="yes"/>
      <point x="367" y="0"/>
      <point x="426" y="67"/>
      <point x="426" y="206" type="curve" smooth="yes"/>
      <point x="426" y="341"/>
      <point x="366" y="408"/>
      <point x="245" y="408" type="curve" smooth="yes"/>
      <point x="116" y="408" type="line"/>
      <point x="116" y="341" type="line"/>
      <point x="241" y="341" type="line" smooth="yes"/>
      <point x="317" y="341"/>
      <point x="352" y="299"/>
      <point x="352" y="206" type="curve" smooth="yes"/>
      <point x="352" y="109"/>
      <point x="318" y="67"/>
      <point x="241" y="67" type="curve" smooth="yes"/>
      <point x="116" y="67" type="line"/>
    </contour>
    <contour>
      <point x="116" y="640" type="line"/>
      <point x="376" y="640" type="line"/>
      <point x="376" y="707" type="line"/>
      <point x="116" y="707" type="line"/>
    </contour>
    <contour>
      <point x="61" y="0" type="line"/>
      <point x="136" y="0" type="line"/>
      <point x="136" y="707" type="line"/>
      <point x="61" y="707" type="line"/>
    </contour>
  </outline>
</glyph>
<glyph name="Gecyr" format="2">
  <advance width="406"/>
  <unicode hex="0413"/>
  <guideline x="231" y="0" angle="90" name="h1"/>
  <anchor x="231" y="760" name="top"/>
  <outline>
    <contour>
      <point x="61" y="707" type="line"/>
      <point x="376" y="707" type="line"/>
      <point x="376" y="640" type="line"/>
      <point x="136" y="640" type="line"/>
      <point x="136" y="0" type="line"/>
      <point x="61" y="0" type="line"/>
    </contour>
  </outline>
</glyph>
<glyph name="Decyr" format="2">
  <advance width="574"/>
  <unicode hex="0414"/>
  <outline>
    <contour>
      <point x="183" y="707" type="line"/>
      <point x="504" y="707" type="line"/>
      <point x="504" y="67" type="line"/>
      <point x="563" y="67" type="line"/>
      <point x="563" y="-170" type="line"/>
      <point x="488" y="-170" type="line"/>
      <point x="488" y="0" type="line"/>
      <point x="85" y="0" type="line"/>
      <point x="85" y="-170" type="line"/>
      <point x="10" y="-170" type="line"/>
      <point x="10" y="67" type="line"/>
      <point x="66" y="67" type="line"/>
      <point x="132" y="188"/>
      <point x="153" y="324"/>
      <point x="163" y="455" type="curve" smooth="yes"/>
    </contour>
    <contour>
      <point x="238" y="420" type="line" smooth="yes"/>
      <point x="230" y="303"/>
      <point x="204" y="174"/>
      <point x="146" y="67" type="curve"/>
      <point x="429" y="67" type="line"/>
      <point x="429" y="640" type="line"/>
      <point x="253" y="640" type="line"/>
    </contour>
  </outline>
</glyph>
<glyph name="Zhecyr" format="2">
  <advance width="755"/>
  <unicode hex="0416"/>
  <outline>
    <contour>
      <point x="395" y="327" type="line"/>
      <point x="520" y="327" type="line"/>
      <point x="521" y="393" type="line"/>
      <point x="395" y="393" type="line"/>
    </contour>
    <contour>
      <point x="340" y="0" type="line"/>
      <point x="415" y="0" type="line"/>
      <point x="415" y="707" type="line"/>
      <point x="340" y="707" type="line"/>
    </contour>
    <contour>
      <point x="663" y="0" type="line"/>
      <point x="745" y="0" type="line"/>
      <point x="531" y="393" type="line"/>
      <point x="478" y="335" type="line"/>
    </contour>
    <contour>
      <point x="478" y="341" type="line"/>
      <point x="536" y="341" type="line"/>
      <point x="720" y="707" type="line"/>
      <point x="641" y="707" type="line"/>
      <point x="478" y="370" type="line"/>
    </contour>
    <contour>
      <point x="235" y="327" type="line"/>
      <point x="360" y="327" type="line"/>
      <point x="360" y="393" type="line"/>
      <point x="234" y="393" type="line"/>
    </contour>
    <contour>
      <point x="340" y="0" type="line"/>
      <point x="415" y="0" type="line"/>
      <point x="415" y="707" type="line"/>
      <point x="340" y="707" type="line"/>
    </contour>
    <contour>
      <point x="10" y="0" type="line"/>
      <point x="92" y="0" type="line"/>
      <point x="277" y="335" type="line"/>
      <point x="224" y="393" type="line"/>
    </contour>
    <contour>
      <point x="219" y="341" type="line"/>
      <point x="277" y="341" type="line"/>
      <point x="277" y="370" type="line"/>
      <point x="114" y="707" type="line"/>
      <point x="35" y="707" type="line"/>
    </contour>
  </outline>
</glyph>
<glyph name="Efcyr" format="2">
  <advance width="549"/>
  <unicode hex="0424"/>
  <guideline x="275" y="0" angle="90" name="h1"/>
  <anchor x="275" y="760" name="top"/>
  <outline>
    <contour>
      <point x="246" y="119" type="line"/>
      <point x="167" y="119"/>
      <point x="128" y="168"/>
      <point x="128" y="265" type="curve" smooth="yes"/>
      <point x="128" y="434" type="line" smooth="yes"/>
      <point x="128" y="537"/>
      <point x="167" y="588"/>
      <point x="246" y="588" type="curve"/>
      <point x="246" y="656" type="line"/>
      <point x="123" y="656"/>
      <point x="53" y="579"/>
      <point x="53" y="441" type="curve" smooth="yes"/>
      <point x="53" y="266" type="line" smooth="yes"/>
      <point x="53" y="131"/>
      <point x="125" y="52"/>
      <point x="246" y="52" type="curve"/>
    </contour>
    <contour>
      <point x="237" y="0" type="line"/>
      <point x="312" y="0" type="line"/>
      <point x="312" y="707" type="line"/>
      <point x="237" y="707" type="line"/>
    </contour>
    <contour>
      <point x="306" y="52" type="line"/>
      <point x="426" y="52"/>
      <point x="496" y="131"/>
      <point x="496" y="266" type="curve" smooth="yes"/>
      <point x="496" y="441" type="line" smooth="yes"/>
      <point x="496" y="578"/>
      <point x="428" y="656"/>
      <point x="306" y="656" type="curve"/>
      <point x="306" y="588" type="line"/>
      <point x="382" y="588"/>
      <point x="421" y="536"/>
      <point x="421" y="434" type="curve" smooth="yes"/>
      <point x="421" y="265" type="line" smooth="yes"/>
      <point x="421" y="171"/>
      <point x="380" y="119"/>
      <point x="306" y="119" type="curve"/>
    </contour>
  </outline>
</glyph>
<glyph name="Tsecyr" format="2">
  <advance width="480"/>
  <unicode hex="0426"/>
  <outline>
    <contour>
      <point x="61" y="707" type="line"/>
      <point x="136" y="707" type="line"/>
      <point x="136" y="67" type="line"/>
      <point x="335" y="67" type="line"/>
      <point x="335" y="707" type="line"/>
      <point x="410" y="707" type="line"/>
      <point x="410" y="67" type="line"/>
      <point x="470" y="67" type="line"/>
      <point x="470" y="-170" type="line"/>
      <point x="395" y="-170" type="line"/>
      <point x="395" y="0" type="line"/>
      <point x="61" y="0" type="line"/>
    </contour>
  </outline>
</glyph>
<glyph name="Shchacyr" format="2">
  <advance width="821"/>
  <unicode hex="0429"/>
  <outline>
    <contour>
      <point x="61" y="707" type="line"/>
      <point x="137" y="707" type="line"/>
      <point x="137" y="67" type="line"/>
      <point x="370" y="67" type="line"/>
      <point x="370" y="707" type="line"/>
      <point x="446" y="707" type="line"/>
      <point x="446" y="67" type="line"/>
      <point x="678" y="67" type="line"/>
      <point x="678" y="707" type="line"/>
      <point x="754" y="707" type="line"/>
      <point x="754" y="67" type="line"/>
      <point x="810" y="67" type="line"/>
      <point x="810" y="-170" type="line"/>
      <point x="735" y="-170" type="line"/>
      <point x="735" y="0" type="line"/>
      <point x="61" y="0" type="line"/>
    </contour>
  </outline>
</glyph>
<glyph name="Hardcyr" format="2">
  <advance width="589"/>
  <unicode hex="042A"/>
  <outline>
    <contour>
      <point x="0" y="707" type="line"/>
      <point x="246" y="707" type="line"/>
      <point x="246" y="408" type="line"/>
      <point x="355" y="408" type="line" smooth="yes"/>
      <point x="476" y="408"/>
      <point x="536" y="341"/>
      <point x="536" y="206" type="curve" smooth="yes"/>
      <point x="536" y="67"/>
      <point x="477" y="0"/>
      <point x="355" y="0" type="curve" smooth="yes"/>
      <point x="171" y="0" type="line"/>
      <point x="171" y="640" type="line"/>
      <point x="0" y="640" type="line"/>
    </contour>
    <contour>
      <point x="351" y="341" type="curve" smooth="yes"/>
      <point x="246" y="341" type="line"/>
      <point x="246" y="67" type="line"/>
      <point x="351" y="67" type="line" smooth="yes"/>
      <point x="428" y="67"/>
      <point x="462" y="109"/>
      <point x="462" y="206" type="curve" smooth="yes"/>
      <point x="462" y="299"/>
      <point x="427" y="341"/>
    </contour>
  </outline>
</glyph>
<glyph name="Ereversedcyr" format="2">
  <advance width="489"/>
  <unicode hex="042D"/>
  <guideline x="242" y="0" angle="90" name="h1"/>
  <anchor x="242" y="760" name="top"/>
  <outline>
    <contour>
      <point x="154" y="393" type="line"/>
      <point x="361" y="393" type="line"/>
      <point x="361" y="494" type="line" smooth="yes"/>
      <point x="361" y="547"/>
      <point x="351" y="586"/>
      <point x="331" y="611" type="curve" smooth="yes"/>
      <point x="311" y="636"/>
      <point x="281" y="648"/>
      <point x="242" y="648" type="curve" smooth="yes"/>
      <point x="207" y="648"/>
      <point x="180" y="637"/>
      <point x="159" y="615" type="curve" smooth="yes"/>
      <point x="138" y="592"/>
      <point x="128" y="557"/>
      <point x="128" y="508" type="curve" smooth="yes"/>
      <point x="128" y="501" type="line"/>
      <point x="53" y="501" type="line"/>
      <point x="53" y="510" type="line" smooth="yes"/>
      <point x="53" y="579"/>
      <point x="71" y="630"/>
      <point x="106" y="665" type="curve" smooth="yes"/>
      <point x="141" y="699"/>
      <point x="187" y="716"/>
      <point x="243" y="716" type="curve" smooth="yes"/>
      <point x="301" y="716"/>
      <point x="348" y="698"/>
      <point x="383" y="663" type="curve" smooth="yes"/>
      <point x="418" y="627"/>
      <point x="436" y="573"/>
      <point x="436" y="501" type="curve" smooth="yes"/>
      <point x="436" y="206" type="line" smooth="yes"/>
      <point x="436" y="135"/>
      <point x="418" y="81"/>
      <point x="382" y="46" type="curve" smooth="yes"/>
      <point x="347" y="10"/>
      <point x="300" y="-8"/>
      <point x="242" y="-8" type="curve" smooth="yes"/>
      <point x="187" y="-8"/>
      <point x="142" y="9"/>
      <point x="107" y="43" type="curve" smooth="yes"/>
      <point x="72" y="77"/>
      <point x="55" y="128"/>
      <point x="55" y="196" type="curve" smooth="yes"/>
      <point x="55" y="206" type="line"/>
      <point x="128" y="206" type="line"/>
      <point x="128" y="197" type="line" smooth="yes"/>
      <point x="128" y="150"/>
      <point x="138" y="116"/>
      <point x="158" y="93" type="curve" smooth="yes"/>
      <point x="179" y="70"/>
      <point x="207" y="59"/>
      <point x="242" y="59" type="curve" smooth="yes"/>
      <point x="321" y="60"/>
      <point x="361" y="108"/>
      <point x="361" y="205" type="curve" smooth="yes"/>
      <point x="361" y="327" type="line"/>
      <point x="154" y="327" type="line"/>
    </contour>
  </outline>
</glyph>
<glyph name="gecyr" format="2">
  <advance width="350"/>
  <unicode hex="0433"/>
  <guideline x="234" y="0" angle="90" name="h1"/>
  <anchor x="234" y="590" name="top"/>
  <outline>
    <contour>
      <point x="330" y="466" type="line"/>
      <point x="330" y="529" type="line"/>
      <point x="60" y="529" type="line"/>
      <point x="60" y="466" type="line"/>
    </contour>
    <contour>
      <point x="60" y="0" type="line"/>
      <point x="130" y="0" type="line"/>
      <point x="130" y="529" type="line"/>
      <point x="60" y="529" type="line"/>
    </contour>
  </outline>
</glyph>
<glyph name="zhecyr" format="2">
  <advance width="644"/>
  <unicode hex="0436"/>
  <outline>
    <component base="kacyr" xOffset="227"/>
    <contour>
      <point x="37" y="529" type="line"/>
      <point x="114" y="529" type="line"/>
      <point x="253" y="313" type="line"/>
      <point x="308" y="313" type="line"/>
      <point x="308" y="250" type="line"/>
      <point x="244" y="250" type="line"/>
      <point x="245" y="249" type="line"/>
      <point x="93" y="0" type="line"/>
      <point x="14" y="0" type="line"/>
      <point x="187" y="288" type="line"/>
    </contour>
  </outline>
</glyph>
<glyph name="zecyr" format="2">
  <advance width="444"/>
  <unicode hex="0437"/>
  <outline>
    <contour>
      <point x="51" y="133" type="line"/>
      <point x="51" y="118" type="line" smooth="yes"/>
      <point x="51" y="43"/>
      <point x="116" y="-8"/>
      <point x="214" y="-8" type="curve" smooth="yes"/>
      <point x="316" y="-8"/>
      <point x="385" y="55"/>
      <point x="385" y="149" type="curve" smooth="yes"/>
      <point x="385" y="163" type="line" smooth="yes"/>
      <point x="385" y="231"/>
      <point x="363" y="267"/>
      <point x="323" y="288" type="curve"/>
      <point x="323" y="291" type="line"/>
      <point x="355" y="311"/>
      <point x="375" y="349"/>
      <point x="375" y="392" type="curve" smooth="yes"/>
      <point x="375" y="407" type="line" smooth="yes"/>
      <point x="375" y="484"/>
      <point x="310" y="538"/>
      <point x="215" y="538" type="curve" smooth="yes"/>
      <point x="118" y="538"/>
      <point x="51" y="485"/>
      <point x="51" y="407" type="curve" smooth="yes"/>
      <point x="51" y="397" type="line"/>
      <point x="120" y="397" type="line"/>
      <point x="120" y="408" type="line" smooth="yes"/>
      <point x="120" y="446"/>
      <point x="161" y="475"/>
      <point x="216" y="475" type="curve" smooth="yes"/>
      <point x="271" y="475"/>
      <point x="306" y="447"/>
      <point x="306" y="403" type="curve" smooth="yes"/>
      <point x="306" y="389" type="line" smooth="yes"/>
      <point x="306" y="347"/>
      <point x="282" y="308"/>
      <point x="238" y="308" type="curve" smooth="yes"/>
      <point x="165" y="308" type="line"/>
      <point x="165" y="255" type="line"/>
      <point x="234" y="255" type="line" smooth="yes"/>
      <point x="283" y="255"/>
      <point x="316" y="215"/>
      <point x="316" y="163" type="curve" smooth="yes"/>
      <point x="316" y="152" type="line" smooth="yes"/>
      <point x="316" y="94"/>
      <point x="278" y="54"/>
      <point x="213" y="54" type="curve" smooth="yes"/>
      <point x="159" y="54"/>
      <point x="120" y="81"/>
      <point x="120" y="119" type="curve" smooth="yes"/>
      <point x="120" y="133" type="line"/>
    </contour>
  </outline>
</glyph>
<glyph name="icyr" format="2">
  <advance width="438"/>
  <unicode hex="0438"/>
  <guideline x="214" y="0" angle="90" name="h1"/>
  <anchor x="214" y="590" name="top"/>
  <outline>
    <contour>
      <point x="309" y="0" type="line"/>
      <point x="378" y="0" type="line"/>
      <point x="378" y="529" type="line"/>
      <point x="319" y="529" type="line"/>
      <point x="314" y="488"/>
      <point x="309" y="379"/>
      <point x="309" y="339" type="curve" smooth="yes"/>
    </contour>
    <contour>
      <point x="60" y="0" type="line"/>
      <point x="119" y="0" type="line"/>
      <point x="125" y="40"/>
      <point x="129" y="150"/>
      <point x="129" y="190" type="curve" smooth="yes"/>
      <point x="129" y="529" type="line"/>
      <point x="60" y="529" type="line"/>
    </contour>
    <contour>
      <point x="115" y="0" type="line"/>
      <point x="139" y="0" type="line"/>
      <point x="286" y="339" type="line" smooth="yes"/>
      <point x="296" y="362"/>
      <point x="305" y="392"/>
      <point x="309" y="409" type="curve"/>
      <point x="323" y="409" type="line"/>
      <point x="323" y="529" type="line"/>
      <point x="299" y="529" type="line"/>
      <point x="152" y="190" type="line" smooth="yes"/>
      <point x="145" y="174"/>
      <point x="134" y="139"/>
      <point x="129" y="120" type="curve"/>
      <point x="115" y="120" type="line"/>
    </contour>
  </outline>
</glyph>
<glyph name="pecyr" format="2">
  <advance width="418"/>
  <unicode hex="043F"/>
  <outline>
    <contour>
      <point x="60" y="529" type="line"/>
      <point x="358" y="529" type="line"/>
      <point x="358" y="0" type="line"/>
      <point x="289" y="0" type="line"/>
      <point x="289" y="466" type="line"/>
      <point x="129" y="466" type="line"/>
      <point x="129" y="0" type="line"/>
      <point x="60" y="0" type="line"/>
    </contour>
  </outline>
</glyph>
<glyph name="tecyr" format="2">
  <advance width="390"/>
  <unicode hex="0442"/>
  <guideline x="195" y="0" angle="90" name="h1"/>
  <anchor x="195" y="590" name="top"/>
  <outline>
    <contour>
      <point x="20" y="466" type="line"/>
      <point x="370" y="466" type="line"/>
      <point x="370" y="529" type="line"/>
      <point x="20" y="529" type="line"/>
    </contour>
    <contour>
      <point x="160" y="0" type="line"/>
      <point x="230" y="0" type="line"/>
      <point x="230" y="529" type="line"/>
      <point x="160" y="529" type="line"/>
    </contour>
  </outline>
</glyph>
<glyph name="hardcyr" format="2">
  <advance width="494"/>
  <unicode hex="044A"/>
  <outline>
    <contour>
      <point x="0" y="529" type="line"/>
      <point x="209" y="529" type="line"/>
      <point x="209" y="313" type="line"/>
      <point x="298" y="313" type="line" smooth="yes"/>
      <point x="399" y="313"/>
      <point x="444" y="267"/>
      <point x="444" y="163" type="curve" smooth="yes"/>
      <point x="444" y="56"/>
      <point x="385" y="0"/>
      <point x="283" y="0" type="curve" smooth="yes"/>
      <point x="140" y="0" type="line"/>
      <point x="140" y="466" type="line"/>
      <point x="0" y="466" type="line"/>
    </contour>
    <contour>
      <point x="298" y="250" type="curve" smooth="yes"/>
      <point x="209" y="250" type="line"/>
      <point x="209" y="63" type="line"/>
      <point x="298" y="63" type="line" smooth="yes"/>
      <point x="344" y="63"/>
      <point x="375" y="103"/>
      <point x="375" y="160" type="curve" smooth="yes"/>
      <point x="375" y="214"/>
      <point x="344" y="250"/>
    </contour>
  </outline>
</glyph>
<glyph name="yacyr" format="2">
  <advance width="439"/>
  <unicode hex="044F"/>
  <guideline x="241" y="0" angle="90" name="h1"/>
  <anchor x="241" y="590" name="top"/>
  <outline>
    <contour>
      <point x="167" y="205" type="line"/>
      <point x="105" y="230"/>
      <point x="64" y="285"/>
      <point x="64" y="370" type="curve" smooth="yes"/>
      <point x="64" y="467"/>
      <point x="136" y="529"/>
      <point x="215" y="529" type="curve" smooth="yes"/>
      <point x="330" y="529" type="line"/>
      <point x="330" y="466" type="line"/>
      <point x="236" y="466" type="line" smooth="yes"/>
      <point x="181" y="466"/>
      <point x="133" y="434"/>
      <point x="133" y="368" type="curve" smooth="yes"/>
      <point x="133" y="302"/>
      <point x="173" y="268"/>
      <point x="215" y="268" type="curve" smooth="yes"/>
      <point x="330" y="268" type="line"/>
      <point x="330" y="205" type="line"/>
    </contour>
    <contour>
      <point x="379" y="0" type="line"/>
      <point x="310" y="0" type="line"/>
      <point x="310" y="529" type="line"/>
      <point x="379" y="529" type="line"/>
    </contour>
    <contour>
      <point x="60" y="0" type="line"/>
      <point x="159" y="238" type="line"/>
      <point x="221" y="229" type="line"/>
      <point x="127" y="0" type="line"/>
    </contour>
  </outline>
</glyph>
<glyph name="ljecyr" format="2">
  <advance width="614"/>
  <unicode hex="0459"/>
  <outline>
    <contour>
      <point x="91" y="529" type="line"/>
      <point x="345" y="529" type="line"/>
      <point x="345" y="313" type="line"/>
      <point x="418" y="313" type="line" smooth="yes"/>
      <point x="519" y="313"/>
      <point x="564" y="267"/>
      <point x="564" y="163" type="curve" smooth="yes"/>
      <point x="564" y="56"/>
      <point x="505" y="0"/>
      <point x="403" y="0" type="curve" smooth="yes"/>
      <point x="276" y="0" type="line"/>
      <point x="276" y="466" type="line"/>
      <point x="155" y="466" type="line"/>
      <point x="128" y="99" type="line" smooth="yes"/>
      <point x="123" y="31"/>
      <point x="86" y="0"/>
      <point x="11" y="0" type="curve"/>
      <point x="11" y="63" type="line"/>
      <point x="46" y="63"/>
      <point x="54" y="87"/>
      <point x="57" y="123" type="curve" smooth="yes"/>
    </contour>
    <contour>
      <point x="418" y="250" type="curve" smooth="yes"/>
      <point x="345" y="250" type="line"/>
      <point x="345" y="63" type="line"/>
      <point x="418" y="63" type="line" smooth="yes"/>
      <point x="464" y="63"/>
      <point x="495" y="103"/>
      <point x="495" y="160" type="curve" smooth="yes"/>
      <point x="495" y="214"/>
      <point x="464" y="250"/>
    </contour>
  </outline>
</glyph>
<glyph name="dzhecyr" format="2">
  <advance width="424"/>
  <unicode hex="045F"/>
  <outline>
    <contour>
      <point x="295" y="0" type="line"/>
      <point x="364" y="0" type="line"/>
      <point x="364" y="529" type="line"/>
      <point x="295" y="529" type="line"/>
    </contour>
    <contour>
      <point x="60" y="0" type="line"/>
      <point x="129" y="0" type="line"/>
      <point x="129" y="529" type="line"/>
      <point x="60" y="529" type="line"/>
    </contour>
    <contour>
      <point x="109" y="0" type="line"/>
      <point x="315" y="0" type="line"/>
      <point x="315" y="63" type="line"/>
      <point x="109" y="63" type="line"/>
    </contour>
    <contour>
      <point x="177" y="-170" type="line"/>
      <point x="246" y="-170" type="line"/>
      <point x="246" y="63" type="line"/>
      <point x="177" y="63" type="line"/>
    </contour>
  </outline>
</glyph>
<glyph name="Gheupturncyrillic" format="2">
  <advance width="406"/>
  <unicode hex="0490"/>
  <outline>
    <component base="Gecyr"/>
    <contour>
      <point x="306" y="707" type="line"/>
      <point x="306" y="867" type="line"/>
      <point x="376" y="867" type="line"/>
      <point x="376" y="707" type="line"/>
    </contour>
  </outline>
</glyph>
<glyph name="Germandbls" format="2">
  <advance width="480"/>
  <unicode hex="1E9E"/>
  <outline>
    <contour>
      <point x="0" y="1" type="line"/>
      <point x="0" y="487" type="line"/>
      <point x="0" y="570"/>
      <point x="14" y="618"/>
      <point x="42" y="651" type="curve" smooth="yes"/>
      <point x="69" y="682"/>
      <point x="110" y="715"/>
      <point x="176" y="714" type="curve" smooth="yes"/>
      <point x="218" y="714"/>
      <point x="291" y="683"/>
      <point x="337" y="597" type="curve"/>
      <point x="222" y="401" type="line"/>
      <point x="262" y="401"/>
      <point x="305" y="388"/>
      <point x="344" y="351" type="curve" smooth="yes"/>
      <point x="383" y="314"/>
      <point x="403" y="263"/>
      <point x="403" y="199" type="curve" smooth="yes"/>
      <point x="403" y="133"/>
      <point x="391" y="88"/>
      <point x="353" y="49" type="curve" smooth="yes"/>
      <point x="314" y="10"/>
      <point x="278" y="-3"/>
      <point x="215" y="-3" type="curve" smooth="yes"/>
      <point x="138" y="-3" type="line"/>
      <point x="138" y="64" type="line"/>
      <point x="227" y="64" type="line" smooth="yes"/>
      <point x="253" y="64"/>
      <point x="274" y="65"/>
      <point x="294" y="86" type="curve" smooth="yes"/>
      <point x="320" y="107"/>
      <point x="334" y="138"/>
      <point x="334" y="197" type="curve" smooth="yes"/>
      <point x="334" y="290"/>
      <point x="283" y="330"/>
      <point x="225" y="330" type="curve" smooth="yes"/>
      <point x="151" y="330" type="line"/>
      <point x="151" y="403" type="line"/>
      <point x="266" y="594" type="line"/>
      <point x="226" y="638"/>
      <point x="197" y="652"/>
      <point x="176" y="652" type="curve" smooth="yes"/>
      <point x="146" y="652"/>
      <point x="127" y="646"/>
      <point x="106" y="620" type="curve" smooth="yes"/>
      <point x="77" y="589"/>
      <point x="69" y="543"/>
      <point x="69" y="496" type="curve" smooth="yes"/>
      <point x="69" y="1" type="line"/>
    </contour>
  </outline>
</glyph>
<glyph name="bullet" format="2">
  <advance width="432"/>
  <unicode hex="2022"/>
  <outline>
    <contour>
      <point x="91" y="262"/>
      <point x="91" y="315" type="qcurve" smooth="yes"/>
      <point x="91" y="369"/>
      <point x="163" y="440"/>
      <point x="216" y="440" type="qcurve" smooth="yes"/>
      <point x="270" y="440"/>
      <point x="341" y="370"/>
      <point x="341" y="315" type="qcurve" smooth="yes"/>
      <point x="341" y="262"/>
      <point x="270" y="190"/>
      <point x="216" y="190" type="qcurve" smooth="yes"/>
      <point x="163" y="190"/>
    </contour>
  </outline>
</glyph>
<glyph name="dottedcircle" format="2">
  <advance width="680"/>
  <unicode hex="25CC"/>
  <anchor x="340" y="0" name="bottom"/>
  <anchor x="340" y="519" name="top"/>
  <outline>
    <contour>
      <point x="164" y="154" type="qcurve"/>
      <point x="164" y="166"/>
      <point x="182" y="184"/>
      <point x="194" y="184" type="qcurve"/>
      <point x="207" y="184"/>
      <point x="224" y="166"/>
      <point x="224" y="154" type="qcurve"/>
      <point x="224" y="142"/>
      <point x="207" y="124"/>
      <point x="194" y="124" type="qcurve"/>
      <point x="182" y="124"/>
      <point x="164" y="142"/>
    </contour>
    <contour>
      <point x="489" y="260" type="qcurve"/>
      <point x="489" y="272"/>
      <point x="507" y="289"/>
      <point x="519" y="289" type="qcurve"/>
      <point x="531" y="289"/>
      <point x="549" y="272"/>
      <point x="549" y="260" type="qcurve"/>
      <point x="549" y="247"/>
      <point x="531" y="230"/>
      <point x="519" y="230" type="qcurve"/>
      <point x="507" y="230"/>
      <point x="489" y="247"/>
    </contour>
    <contour>
      <point x="365" y="430" type="qcurve"/>
      <point x="365" y="443"/>
      <point x="383" y="460"/>
      <point x="395" y="460" type="qcurve"/>
      <point x="407" y="460"/>
      <point x="425" y="443"/>
      <point x="425" y="430" type="qcurve"/>
      <point x="425" y="418"/>
      <point x="407" y="400"/>
      <point x="395" y="400" type="qcurve"/>
      <point x="383" y="400"/>
      <point x="365" y="418"/>
    </contour>
    <contour>
      <point x="254" y="430" type="qcurve"/>
      <point x="254" y="443"/>
      <point x="272" y="460"/>
      <point x="284" y="460" type="qcurve"/>
      <point x="296" y="460"/>
      <point x="314" y="443"/>
      <point x="314" y="430" type="qcurve"/>
      <point x="314" y="418"/>
      <point x="296" y="400"/>
      <point x="284" y="400" type="qcurve"/>
      <point x="272" y="400"/>
      <point x="254" y="418"/>
    </contour>
    <contour>
      <point x="164" y="365" type="qcurve"/>
      <point x="164" y="377"/>
      <point x="182" y="395"/>
      <point x="194" y="395" type="qcurve"/>
      <point x="207" y="395"/>
      <point x="224" y="377"/>
      <point x="224" y="365" type="qcurve"/>
      <point x="224" y="353"/>
      <point x="207" y="335"/>
      <point x="194" y="335" type="qcurve"/>
      <point x="182" y="335"/>
      <point x="164" y="353"/>
    </contour>
    <contour>
      <point x="365" y="89" type="qcurve"/>
      <point x="365" y="101"/>
      <point x="383" y="119"/>
      <point x="395" y="119" type="qcurve"/>
      <point x="407" y="119"/>
      <point x="425" y="101"/>
      <point x="425" y="89" type="qcurve"/>
      <point x="425" y="76"/>
      <point x="407" y="59"/>
      <point x="395" y="59" type="qcurve"/>
      <point x="383" y="59"/>
      <point x="365" y="76"/>
    </contour>
    <contour>
      <point x="254" y="89" type="qcurve"/>
      <point x="254" y="101"/>
      <point x="272" y="119"/>
      <point x="284" y="119" type="qcurve"/>
      <point x="296" y="119"/>
      <point x="314" y="101"/>
      <point x="314" y="89" type="qcurve"/>
      <point x="314" y="76"/>
      <point x="296" y="59"/>
      <point x="284" y="59" type="qcurve"/>
      <point x="272" y="59"/>
      <point x="254" y="76"/>
    </contour>
    <contour>
      <point x="455" y="154" type="qcurve"/>
      <point x="455" y="166"/>
      <point x="472" y="184"/>
      <point x="485" y="184" type="qcurve"/>
      <point x="497" y="184"/>
      <point x="515" y="166"/>
      <point x="515" y="154" type="qcurve"/>
      <point x="515" y="142"/>
      <point x="497" y="124"/>
      <point x="485" y="124" type="qcurve"/>
      <point x="472" y="124"/>
      <point x="455" y="142"/>
    </contour>
    <contour>
      <point x="130" y="260" type="qcurve"/>
      <point x="130" y="272"/>
      <point x="148" y="289"/>
      <point x="160" y="289" type="qcurve"/>
      <point x="172" y="289"/>
      <point x="190" y="272"/>
      <point x="190" y="260" type="qcurve"/>
      <point x="190" y="247"/>
      <point x="172" y="230"/>
      <point x="160" y="230" type="qcurve"/>
      <point x="148" y="230"/>
      <point x="130" y="247"/>
    </contour>
    <contour>
      <point x="455" y="365" type="qcurve"/>
      <point x="455" y="377"/>
      <point x="472" y="395"/>
      <point x="485" y="395" type="qcurve"/>
      <point x="497" y="395"/>
      <point x="515" y="377"/>
      <point x="515" y="365" type="qcurve"/>
      <point x="515" y="353"/>
      <point x="497" y="335"/>
      <point x="485" y="335" type="qcurve"/>
      <point x="472" y="335"/>
      <point x="455" y="353"/>
    </contour>
  </outline>
</glyph>
<glyph name="Decyr.loclBGR" format="2">
  <advance width="514"/>
  <outline>
    <component base="Elcyr.loclBGR" xOffset="23"/>
    <contour>
      <point x="309" y="0" type="line"/>
      <point x="428" y="0" type="line"/>
      <point x="428" y="-170" type="line"/>
      <point x="503" y="-170" type="line"/>
      <point x="503" y="67" type="line"/>
      <point x="309" y="67" type="line"/>
    </contour>
    <contour>
      <point x="169" y="0" type="line"/>
      <point x="359" y="0" type="line"/>
      <point x="359" y="67" type="line"/>
      <point x="169" y="67" type="line"/>
    </contour>
    <contour>
      <point x="10" y="-170" type="line"/>
      <point x="85" y="-170" type="line"/>
      <point x="85" y="0" type="line"/>
      <point x="219" y="0" type="line"/>
      <point x="219" y="67" type="line"/>
      <point x="10" y="67" type="line"/>
    </contour>
  </outline>
</glyph>
<glyph name="Elcyr.loclBGR" format="2">
  <advance width="472"/>
  <outline>
    <contour>
      <point x="202" y="707" type="line"/>
      <point x="270" y="707" type="line"/>
      <point x="463" y="0" type="line"/>
      <point x="384" y="0" type="line"/>
      <point x="236" y="594" type="line"/>
      <point x="87" y="0" type="line"/>
      <point x="9" y="0" type="line"/>
    </contour>
  </outline>
</glyph>
<glyph name="eight.dnom" format="2">
  <advance width="263"/>
  <outline>
    <contour>
      <point x="239" y="295" type="line" smooth="yes"/>
      <point x="239" y="246"/>
      <point x="207" y="220" type="qcurve"/>
      <point x="242" y="193"/>
      <point x="242" y="141" type="qcurve" smooth="yes"/>
      <point x="242" y="140"/>
      <point x="242" y="139" type="qcurve" smooth="yes"/>
      <point x="242" y="93" type="line" smooth="yes"/>
      <point x="242" y="42"/>
      <point x="213" y="13" type="qcurve" smooth="yes"/>
      <point x="184" y="-17"/>
      <point x="132" y="-17" type="qcurve" smooth="yes"/>
      <point x="80" y="-17"/>
      <point x="51" y="13" type="qcurve" smooth="yes"/>
      <point x="22" y="43"/>
      <point x="22" y="93" type="qcurve" smooth="yes"/>
      <point x="22" y="139" type="line" smooth="yes"/>
      <point x="22" y="193"/>
      <point x="58" y="220" type="qcurve"/>
      <point x="24" y="247"/>
      <point x="24" y="295" type="qcurve" smooth="yes"/>
      <point x="24" y="334" type="line" smooth="yes"/>
      <point x="24" y="380"/>
      <point x="54" y="408" type="qcurve" smooth="yes"/>
      <point x="83" y="436"/>
      <point x="132" y="437" type="qcurve" smooth="yes"/>
      <point x="181" y="437"/>
      <point x="210" y="408" type="qcurve" smooth="yes"/>
      <point x="239" y="380"/>
      <point x="239" y="334" type="qcurve" smooth="yes"/>
    </contour>
    <contour>
      <point x="93" y="295" type="line" smooth="yes"/>
      <point x="93" y="249"/>
      <point x="132" y="249" type="qcurve" smooth="yes"/>
      <point x="171" y="249"/>
      <point x="172" y="295" type="qcurve" smooth="yes"/>
      <point x="172" y="334" type="line" smooth="yes"/>
      <point x="172" y="376"/>
      <point x="132" y="376" type="qcurve" smooth="yes"/>
      <point x="93" y="376"/>
      <point x="93" y="334" type="qcurve" smooth="yes"/>
    </contour>
    <contour>
      <point x="132" y="43" type="qcurve" smooth="yes"/>
      <point x="174" y="43"/>
      <point x="174" y="94" type="qcurve" smooth="yes"/>
      <point x="174" y="140" type="line" smooth="yes"/>
      <point x="174" y="190"/>
      <point x="133" y="190" type="qcurve" smooth="yes"/>
      <point x="90" y="190"/>
      <point x="90" y="140" type="qcurve" smooth="yes"/>
      <point x="90" y="94" type="line" smooth="yes"/>
      <point x="90" y="43"/>
    </contour>
  </outline>
</glyph>
<glyph name="five.dnom" format="2">
  <advance width="260"/>
  <outline>
    <contour>
      <point x="92" y="90" type="line" smooth="yes"/>
      <point x="92" y="46"/>
      <point x="129" y="45" type="qcurve" smooth="yes"/>
      <point x="149" y="45"/>
      <point x="158" y="56" type="qcurve" smooth="yes"/>
      <point x="167" y="67"/>
      <point x="167" y="94" type="qcurve" smooth="yes"/>
      <point x="167" y="170" type="line" smooth="yes"/>
      <point x="167" y="197"/>
      <point x="158" y="208" type="qcurve" smooth="yes"/>
      <point x="149" y="219"/>
      <point x="127" y="219" type="qcurve" smooth="yes"/>
      <point x="105" y="219"/>
      <point x="91" y="195" type="qcurve" smooth="yes"/>
      <point x="87" y="189" type="line"/>
      <point x="27" y="189" type="line"/>
      <point x="27" y="431" type="line"/>
      <point x="235" y="431" type="line"/>
      <point x="235" y="367" type="line"/>
      <point x="96" y="367" type="line"/>
      <point x="96" y="272" type="line"/>
      <point x="115" y="281"/>
      <point x="139" y="281" type="qcurve" smooth="yes"/>
      <point x="239" y="281"/>
      <point x="239" y="170" type="qcurve" smooth="yes"/>
      <point x="239" y="96" type="line" smooth="yes"/>
      <point x="239" y="47"/>
      <point x="214" y="15" type="qcurve" smooth="yes"/>
      <point x="190" y="-17"/>
      <point x="134" y="-17" type="qcurve" smooth="yes"/>
      <point x="78" y="-17"/>
      <point x="50" y="11" type="qcurve" smooth="yes"/>
      <point x="22" y="38"/>
      <point x="22" y="89" type="qcurve" smooth="yes"/>
      <point x="22" y="100" type="line"/>
      <point x="22" y="111" type="line"/>
      <point x="92" y="111" type="line"/>
      <point x="92" y="100" type="line"/>
    </contour>
  </outline>
</glyph>
<glyph name="four.tosf" format="2">
  <advance width="418"/>
  <outline>
    <contour>
      <point x="401" y="0" type="line"/>
      <point x="339" y="0" type="line"/>
      <point x="339" y="-162" type="line"/>
      <point x="264" y="-162" type="line"/>
      <point x="264" y="0" type="line"/>
      <point x="49" y="0" type="line"/>
      <point x="49" y="67" type="line"/>
      <point x="197" y="539" type="line"/>
      <point x="272" y="539" type="line"/>
      <point x="122" y="67" type="line"/>
      <point x="264" y="67" type="line"/>
      <point x="264" y="232" type="line"/>
      <point x="339" y="232" type="line"/>
      <point x="339" y="67" type="line"/>
      <point x="401" y="67" type="line"/>
    </contour>
  </outline>
</glyph>
<glyph name="nine.dnom" format="2">
  <advance width="258"/>
  <outline>
    <contour>
      <point x="121" y="158" type="qcurve" smooth="yes"/>
      <point x="73" y="158"/>
      <point x="46" y="186" type="qcurve" smooth="yes"/>
      <point x="19" y="214"/>
      <point x="19" y="260" type="qcurve" smooth="yes"/>
      <point x="19" y="329" type="line" smooth="yes"/>
      <point x="19" y="379"/>
      <point x="49" y="408" type="qcurve" smooth="yes"/>
      <point x="79" y="437"/>
      <point x="130" y="437" type="qcurve" smooth="yes"/>
      <point x="181" y="437"/>
      <point x="211" y="407" type="qcurve" smooth="yes"/>
      <point x="240" y="377"/>
      <point x="240" y="328" type="qcurve" smooth="yes"/>
      <point x="240" y="267" type="line" smooth="yes"/>
      <point x="240" y="223"/>
      <point x="219" y="175" type="qcurve" smooth="yes"/>
      <point x="134" y="-11" type="line"/>
      <point x="60" y="-11" type="line"/>
      <point x="137" y="159" type="line"/>
      <point x="129" y="158"/>
    </contour>
    <contour>
      <point x="91" y="264" type="line" smooth="yes"/>
      <point x="91" y="219"/>
      <point x="130" y="219" type="qcurve" smooth="yes"/>
      <point x="169" y="219"/>
      <point x="168" y="261" type="qcurve" smooth="yes"/>
      <point x="168" y="329" type="line" smooth="yes"/>
      <point x="168" y="374"/>
      <point x="130" y="374" type="qcurve" smooth="yes"/>
      <point x="91" y="374"/>
      <point x="91" y="330" type="qcurve" smooth="yes"/>
    </contour>
  </outline>
</glyph>
<glyph name="nine.tosf" format="2">
  <advance width="418"/>
  <outline>
    <contour>
      <point x="254" y="130" type="line"/>
      <point x="249" y="126"/>
      <point x="241" y="123"/>
      <point x="230" y="120" type="curve" smooth="yes"/>
      <point x="219" y="117"/>
      <point x="208" y="116"/>
      <point x="196" y="116" type="curve" smooth="yes"/>
      <point x="152" y="116"/>
      <point x="118" y="130"/>
      <point x="93" y="157" type="curve" smooth="yes"/>
      <point x="68" y="184"/>
      <point x="55" y="222"/>
      <point x="55" y="269" type="curve" smooth="yes"/>
      <point x="55" y="377" type="line" smooth="yes"/>
      <point x="55" y="428"/>
      <point x="69" y="467"/>
      <point x="97" y="496" type="curve" smooth="yes"/>
      <point x="125" y="525"/>
      <point x="163" y="539"/>
      <point x="210" y="539" type="curve" smooth="yes"/>
      <point x="258" y="539"/>
      <point x="296" y="524"/>
      <point x="323" y="495" type="curve" smooth="yes"/>
      <point x="350" y="466"/>
      <point x="363" y="426"/>
      <point x="363" y="375" type="curve" smooth="yes"/>
      <point x="363" y="281" type="line" smooth="yes"/>
      <point x="363" y="252"/>
      <point x="361" y="228"/>
      <point x="357" y="208" type="curve" smooth="yes"/>
      <point x="352" y="187"/>
      <point x="344" y="162"/>
      <point x="331" y="133" type="curve" smooth="yes"/>
      <point x="204" y="-162" type="line"/>
      <point x="129" y="-162" type="line"/>
    </contour>
    <contour>
      <point x="289" y="271" type="curve" smooth="yes"/>
      <point x="289" y="377" type="line" smooth="yes"/>
      <point x="289" y="408"/>
      <point x="282" y="431"/>
      <point x="269" y="448" type="curve" smooth="yes"/>
      <point x="255" y="464"/>
      <point x="235" y="472"/>
      <point x="210" y="472" type="curve" smooth="yes"/>
      <point x="184" y="472"/>
      <point x="164" y="464"/>
      <point x="151" y="448" type="curve" smooth="yes"/>
      <point x="137" y="431"/>
      <point x="130" y="408"/>
      <point x="130" y="378" type="curve" smooth="yes"/>
      <point x="130" y="275" type="line" smooth="yes"/>
      <point x="130" y="245"/>
      <point x="137" y="222"/>
      <point x="151" y="206" type="curve" smooth="yes"/>
      <point x="164" y="189"/>
      <point x="184" y="181"/>
      <point x="210" y="181" type="curve" smooth="yes"/>
      <point x="235" y="181"/>
      <point x="255" y="189"/>
      <point x="269" y="205" type="curve" smooth="yes"/>
      <point x="282" y="220"/>
      <point x="289" y="242"/>
    </contour>
  </outline>
</glyph>
<glyph name="one.dnom" format="2">
  <advance width="179"/>
  <outline>
    <contour>
      <point x="13" y="296" type="line"/>
      <point x="13" y="377" type="line"/>
      <point x="88" y="431" type="line"/>
      <point x="148" y="431" type="line"/>
      <point x="148" y="-11" type="line"/>
      <point x="80" y="-11" type="line"/>
      <point x="80" y="345" type="line"/>
    </contour>
  </outline>
</glyph>
<glyph name="shacyr.loclBGR" format="2">
  <advance width="659"/>
  <outline>
    <contour>
      <point x="600" y="529" type="line"/>
      <point x="529" y="529" type="line"/>
      <point x="529" y="149" type="line" smooth="yes"/>
      <point x="529" y="90"/>
      <point x="498" y="54"/>
      <point x="447" y="54" type="curve" smooth="yes"/>
      <point x="395" y="54"/>
      <point x="364" y="90"/>
      <point x="364" y="149" type="curve" smooth="yes"/>
      <point x="364" y="529" type="line"/>
      <point x="294" y="529" type="line"/>
      <point x="294" y="148" type="line" smooth="yes"/>
      <point x="294" y="90"/>
      <point x="262" y="54"/>
      <point x="210" y="54" type="curve" smooth="yes"/>
      <point x="160" y="54"/>
      <point x="130" y="90"/>
      <point x="130" y="149" type="curve" smooth="yes"/>
      <point x="130" y="529" type="line"/>
      <point x="59" y="529" type="line"/>
      <point x="59" y="146" type="line" smooth="yes"/>
      <point x="59" y="45"/>
      <point x="107" y="-9"/>
      <point x="196" y="-9" type="curve" smooth="yes"/>
      <point x="245" y="-9"/>
      <point x="288" y="15"/>
      <point x="313" y="58" type="curve"/>
      <point x="336" y="16"/>
      <point x="379" y="-9"/>
      <point x="428" y="-9" type="curve" smooth="yes"/>
      <point x="471" y="-9"/>
      <point x="511" y="13"/>
      <point x="531" y="48" type="curve"/>
      <point x="531" y="0" type="line"/>
      <point x="600" y="0" type="line"/>
    </contour>
  </outline>
</glyph>
<glyph name="six.dnom" format="2">
  <advance width="258"/>
  <outline>
    <contour>
      <point x="19" y="92" type="qcurve" smooth="yes"/>
      <point x="19" y="153" type="line" smooth="yes"/>
      <point x="19" y="197"/>
      <point x="41" y="244" type="qcurve" smooth="yes"/>
      <point x="125" y="431" type="line"/>
      <point x="199" y="431" type="line"/>
      <point x="123" y="261" type="line"/>
      <point x="130" y="262"/>
      <point x="138" y="262" type="qcurve" smooth="yes"/>
      <point x="186" y="262"/>
      <point x="213" y="234" type="qcurve" smooth="yes"/>
      <point x="240" y="206"/>
      <point x="240" y="159" type="qcurve" smooth="yes"/>
      <point x="240" y="91" type="line" smooth="yes"/>
      <point x="240" y="42"/>
      <point x="210" y="13" type="qcurve" smooth="yes"/>
      <point x="180" y="-16"/>
      <point x="129" y="-17" type="qcurve" smooth="yes"/>
      <point x="79" y="-17"/>
      <point x="49" y="13" type="qcurve" smooth="yes"/>
      <point x="19" y="42"/>
    </contour>
    <contour>
      <point x="168" y="156" type="line" smooth="yes"/>
      <point x="168" y="201"/>
      <point x="130" y="200" type="qcurve" smooth="yes"/>
      <point x="91" y="200"/>
      <point x="91" y="158" type="qcurve" smooth="yes"/>
      <point x="91" y="91" type="line" smooth="yes"/>
      <point x="91" y="45"/>
      <point x="130" y="45" type="qcurve" smooth="yes"/>
      <point x="169" y="45"/>
      <point x="168" y="90" type="qcurve" smooth="yes"/>
    </contour>
  </outline>
</glyph>
<glyph name="softcyr.loclBGR" format="2">
  <advance width="461"/>
  <outline>
    <contour>
      <point x="60" y="133" type="line"/>
      <point x="129" y="133" type="line"/>
      <point x="129" y="529" type="line"/>
      <point x="60" y="529" type="line"/>
    </contour>
    <contour>
      <point x="60" y="133" type="line"/>
      <point x="60" y="49"/>
      <point x="128" y="-8"/>
      <point x="227" y="-8" type="curve" smooth="yes"/>
      <point x="333" y="-8"/>
      <point x="401" y="68"/>
      <point x="401" y="184" type="curve" smooth="yes"/>
      <point x="401" y="291"/>
      <point x="335" y="363"/>
      <point x="234" y="363" type="curve" smooth="yes"/>
      <point x="193" y="363"/>
      <point x="153" y="360"/>
      <point x="109" y="354" type="curve"/>
      <point x="109" y="290" type="line"/>
      <point x="153" y="296"/>
      <point x="175" y="299"/>
      <point x="216" y="299" type="curve" smooth="yes"/>
      <point x="285" y="299"/>
      <point x="331" y="252"/>
      <point x="331" y="182" type="curve" smooth="yes"/>
      <point x="331" y="105"/>
      <point x="291" y="54"/>
      <point x="230" y="54" type="curve" smooth="yes"/>
      <point x="165" y="54"/>
      <point x="129" y="82"/>
      <point x="129" y="133" type="curve"/>
    </contour>
  </outline>
</glyph>
<glyph name="t_t" format="2">
  <advance width="564"/>
  <outline>
    <contour>
      <point x="427" y="465" type="line"/>
      <point x="427" y="142" type="line" smooth="yes"/>
      <point x="427" y="115"/>
      <point x="434" y="94"/>
      <point x="447" y="81" type="curve" smooth="yes"/>
      <point x="460" y="68"/>
      <point x="479" y="61"/>
      <point x="505" y="61" type="curve" smooth="yes"/>
      <point x="520" y="61" type="line"/>
      <point x="520" y="0" type="line"/>
      <point x="503" y="0" type="line" smooth="yes"/>
      <point x="406" y="0"/>
      <point x="358" y="46"/>
      <point x="357" y="139" type="curve" smooth="yes"/>
      <point x="357" y="465" type="line"/>
      <point x="165" y="465" type="line"/>
      <point x="165" y="142" type="line" smooth="yes"/>
      <point x="165" y="115"/>
      <point x="172" y="94"/>
      <point x="185" y="81" type="curve" smooth="yes"/>
      <point x="198" y="68"/>
      <point x="217" y="61"/>
      <point x="244" y="61" type="curve" smooth="yes"/>
      <point x="258" y="61" type="line"/>
      <point x="258" y="0" type="line"/>
      <point x="241" y="0" type="line" smooth="yes"/>
      <point x="144" y="0"/>
      <point x="96" y="46"/>
      <point x="95" y="139" type="curve" smooth="yes"/>
      <point x="95" y="465" type="line"/>
      <point x="28" y="465" type="line"/>
      <point x="28" y="519" type="line"/>
      <point x="95" y="519" type="line"/>
      <point x="95" y="640" type="line"/>
      <point x="165" y="672" type="line"/>
      <point x="165" y="519" type="line"/>
      <point x="357" y="519" type="line"/>
      <point x="357" y="640" type="line"/>
      <point x="427" y="672" type="line"/>
      <point x="427" y="519" type="line"/>
      <point x="528" y="519" type="line"/>
      <point x="528" y="465" type="line"/>
    </contour>
  </outline>
</glyph>
<glyph name="three.dnom" format="2">
  <advance width="264"/>
  <outline>
    <contour>
      <point x="170" y="330" type="line" smooth="yes"/>
      <point x="170" y="375"/>
      <point x="131" y="374" type="qcurve" smooth="yes"/>
      <point x="92" y="374"/>
      <point x="92" y="333" type="qcurve" smooth="yes"/>
      <point x="92" y="309" type="line"/>
      <point x="92" y="298" type="line"/>
      <point x="20" y="298" type="line"/>
      <point x="20" y="309" type="line"/>
      <point x="20" y="334" type="line" smooth="yes"/>
      <point x="20" y="382"/>
      <point x="49" y="409" type="qcurve" smooth="yes"/>
      <point x="78" y="436"/>
      <point x="131" y="437" type="qcurve" smooth="yes"/>
      <point x="184" y="437"/>
      <point x="212" y="409" type="qcurve" smooth="yes"/>
      <point x="240" y="382"/>
      <point x="241" y="334" type="qcurve" smooth="yes"/>
      <point x="241" y="299" type="line" smooth="yes"/>
      <point x="241" y="244"/>
      <point x="206" y="220" type="qcurve"/>
      <point x="243" y="196"/>
      <point x="243" y="136" type="qcurve" smooth="yes"/>
      <point x="243" y="92" type="line" smooth="yes"/>
      <point x="243" y="41"/>
      <point x="214" y="12" type="qcurve" smooth="yes"/>
      <point x="185" y="-17"/>
      <point x="131" y="-17" type="qcurve" smooth="yes"/>
      <point x="77" y="-17"/>
      <point x="48" y="10" type="qcurve" smooth="yes"/>
      <point x="19" y="36"/>
      <point x="19" y="83" type="qcurve" smooth="yes"/>
      <point x="19" y="109" type="line"/>
      <point x="19" y="121" type="line"/>
      <point x="90" y="121" type="line"/>
      <point x="90" y="109" type="line"/>
      <point x="90" y="86" type="line" smooth="yes"/>
      <point x="90" y="45"/>
      <point x="131" y="45" type="qcurve" smooth="yes"/>
      <point x="172" y="45"/>
      <point x="172" y="90" type="qcurve" smooth="yes"/>
      <point x="172" y="137" type="line" smooth="yes"/>
      <point x="172" y="163"/>
      <point x="161" y="175" type="qcurve" smooth="yes"/>
      <point x="151" y="187"/>
      <point x="128" y="187" type="qcurve" smooth="yes"/>
      <point x="109" y="187" type="line"/>
      <point x="97" y="187" type="line"/>
      <point x="97" y="249" type="line"/>
      <point x="109" y="249" type="line"/>
      <point x="128" y="249" type="line" smooth="yes"/>
      <point x="151" y="249"/>
      <point x="160" y="260" type="qcurve" smooth="yes"/>
      <point x="169" y="271"/>
      <point x="170" y="297" type="qcurve" smooth="yes"/>
    </contour>
  </outline>
</glyph>
<glyph name="three.sups" format="2">
  <advance width="274"/>
  <outline>
    <contour>
      <point x="31" y="536" type="curve" smooth="yes"/>
      <point x="31" y="561" type="line"/>
      <point x="98" y="561" type="line"/>
      <point x="98" y="538" type="line" smooth="yes"/>
      <point x="98" y="525"/>
      <point x="101" y="515"/>
      <point x="108" y="508" type="curve" smooth="yes"/>
      <point x="114" y="501"/>
      <point x="123" y="497"/>
      <point x="134" y="497" type="curve" smooth="yes"/>
      <point x="159" y="497"/>
      <point x="171" y="513"/>
      <point x="171" y="544" type="curve" smooth="yes"/>
      <point x="171" y="581" type="line" smooth="yes"/>
      <point x="171" y="598"/>
      <point x="168" y="611"/>
      <point x="162" y="619" type="curve" smooth="yes"/>
      <point x="155" y="626"/>
      <point x="145" y="630"/>
      <point x="130" y="630" type="curve" smooth="yes"/>
      <point x="112" y="630" type="line"/>
      <point x="112" y="692" type="line"/>
      <point x="130" y="692" type="line" smooth="yes"/>
      <point x="156" y="692"/>
      <point x="169" y="707"/>
      <point x="169" y="737" type="curve" smooth="yes"/>
      <point x="169" y="768" type="line" smooth="yes"/>
      <point x="169" y="798"/>
      <point x="157" y="813"/>
      <point x="134" y="813" type="curve" smooth="yes"/>
      <point x="123" y="813"/>
      <point x="114" y="810"/>
      <point x="108" y="803" type="curve" smooth="yes"/>
      <point x="102" y="796"/>
      <point x="99" y="785"/>
      <point x="99" y="772" type="curve" smooth="yes"/>
      <point x="99" y="749" type="line"/>
      <point x="31" y="749" type="line"/>
      <point x="31" y="775" type="line" smooth="yes"/>
      <point x="31" y="806"/>
      <point x="40" y="830"/>
      <point x="59" y="849" type="curve" smooth="yes"/>
      <point x="78" y="867"/>
      <point x="103" y="876"/>
      <point x="135" y="876" type="curve" smooth="yes"/>
      <point x="168" y="876"/>
      <point x="193" y="867"/>
      <point x="212" y="848" type="curve" smooth="yes"/>
      <point x="231" y="829"/>
      <point x="240" y="804"/>
      <point x="240" y="771" type="curve" smooth="yes"/>
      <point x="240" y="746" type="line" smooth="yes"/>
      <point x="240" y="725"/>
      <point x="236" y="709"/>
      <point x="229" y="696" type="curve" smooth="yes"/>
      <point x="222" y="683"/>
      <point x="210" y="672"/>
      <point x="195" y="665" type="curve"/>
      <point x="213" y="658"/>
      <point x="225" y="647"/>
      <point x="232" y="633" type="curve" smooth="yes"/>
      <point x="239" y="618"/>
      <point x="242" y="600"/>
      <point x="242" y="577" type="curve" smooth="yes"/>
      <point x="242" y="541" type="line" smooth="yes"/>
      <point x="242" y="508"/>
      <point x="232" y="482"/>
      <point x="213" y="463" type="curve" smooth="yes"/>
      <point x="193" y="444"/>
      <point x="167" y="434"/>
      <point x="135" y="434" type="curve" smooth="yes"/>
      <point x="102" y="434"/>
      <point x="76" y="443"/>
      <point x="58" y="461" type="curve" smooth="yes"/>
      <point x="40" y="479"/>
      <point x="31" y="504"/>
    </contour>
  </outline>
</glyph>
<glyph name="three.tosf" format="2">
  <advance width="418"/>
  <outline>
    <contour>
      <point x="56" y="-21" type="curve" smooth="yes"/>
      <point x="56" y="21" type="line"/>
      <point x="130" y="21" type="line"/>
      <point x="130" y="-16" type="line" smooth="yes"/>
      <point x="130" y="-43"/>
      <point x="137" y="-63"/>
      <point x="152" y="-77" type="curve" smooth="yes"/>
      <point x="166" y="-92"/>
      <point x="186" y="-99"/>
      <point x="212" y="-99" type="curve" smooth="yes"/>
      <point x="239" y="-99"/>
      <point x="260" y="-91"/>
      <point x="274" y="-76" type="curve" smooth="yes"/>
      <point x="288" y="-61"/>
      <point x="295" y="-38"/>
      <point x="295" y="-9" type="curve" smooth="yes"/>
      <point x="295" y="55" type="line" smooth="yes"/>
      <point x="295" y="93"/>
      <point x="288" y="121"/>
      <point x="275" y="139" type="curve" smooth="yes"/>
      <point x="261" y="156"/>
      <point x="239" y="165"/>
      <point x="208" y="165" type="curve" smooth="yes"/>
      <point x="178" y="165" type="line"/>
      <point x="178" y="231" type="line"/>
      <point x="208" y="231" type="line" smooth="yes"/>
      <point x="238" y="231"/>
      <point x="260" y="240"/>
      <point x="273" y="257" type="curve" smooth="yes"/>
      <point x="286" y="274"/>
      <point x="292" y="300"/>
      <point x="292" y="336" type="curve" smooth="yes"/>
      <point x="292" y="387" type="line" smooth="yes"/>
      <point x="292" y="416"/>
      <point x="285" y="438"/>
      <point x="271" y="453" type="curve" smooth="yes"/>
      <point x="257" y="468"/>
      <point x="237" y="476"/>
      <point x="211" y="476" type="curve" smooth="yes"/>
      <point x="186" y="476"/>
      <point x="166" y="469"/>
      <point x="153" y="454" type="curve" smooth="yes"/>
      <point x="139" y="439"/>
      <point x="132" y="419"/>
      <point x="132" y="392" type="curve" smooth="yes"/>
      <point x="132" y="353" type="line"/>
      <point x="58" y="353" type="line"/>
      <point x="58" y="393" type="line" smooth="yes"/>
      <point x="58" y="440"/>
      <point x="71" y="476"/>
      <point x="98" y="502" type="curve" smooth="yes"/>
      <point x="125" y="527"/>
      <point x="163" y="540"/>
      <point x="213" y="540" type="curve" smooth="yes"/>
      <point x="262" y="540"/>
      <point x="300" y="527"/>
      <point x="326" y="502" type="curve" smooth="yes"/>
      <point x="352" y="477"/>
      <point x="365" y="441"/>
      <point x="365" y="394" type="curve" smooth="yes"/>
      <point x="365" y="339" type="line" smooth="yes"/>
      <point x="365" y="302"/>
      <point x="360" y="273"/>
      <point x="349" y="252" type="curve" smooth="yes"/>
      <point x="338" y="231"/>
      <point x="319" y="214"/>
      <point x="292" y="202" type="curve"/>
      <point x="321" y="189"/>
      <point x="342" y="171"/>
      <point x="353" y="149" type="curve" smooth="yes"/>
      <point x="364" y="127"/>
      <point x="369" y="95"/>
      <point x="369" y="54" type="curve" smooth="yes"/>
      <point x="369" y="-6" type="line" smooth="yes"/>
      <point x="369" y="-56"/>
      <point x="356" y="-94"/>
      <point x="329" y="-121" type="curve" smooth="yes"/>
      <point x="302" y="-148"/>
      <point x="262" y="-162"/>
      <point x="211" y="-162" type="curve" smooth="yes"/>
      <point x="161" y="-162"/>
      <point x="123" y="-150"/>
      <point x="96" y="-125" type="curve" smooth="yes"/>
      <point x="69" y="-100"/>
      <point x="56" y="-66"/>
    </contour>
  </outline>
</glyph>
<glyph name="two.dnom" format="2">
  <advance width="256"/>
  <outline>
    <contour>
      <point x="127" y="374" type="qcurve" smooth="yes"/>
      <point x="91" y="374"/>
      <point x="90" y="331" type="qcurve" smooth="yes"/>
      <point x="90" y="307" type="line"/>
      <point x="90" y="295" type="line"/>
      <point x="19" y="295" type="line"/>
      <point x="19" y="307" type="line"/>
      <point x="19" y="335" type="line" smooth="yes"/>
      <point x="19" y="381"/>
      <point x="48" y="409" type="qcurve" smooth="yes"/>
      <point x="78" y="437"/>
      <point x="129" y="437" type="qcurve" smooth="yes"/>
      <point x="180" y="437"/>
      <point x="209" y="409" type="qcurve" smooth="yes"/>
      <point x="238" y="381"/>
      <point x="238" y="336" type="qcurve" smooth="yes"/>
      <point x="238" y="313" type="line" smooth="yes"/>
      <point x="238" y="265"/>
      <point x="206" y="215" type="qcurve"/>
      <point x="107" y="51" type="line"/>
      <point x="236" y="51" type="line"/>
      <point x="236" y="-11" type="line"/>
      <point x="19" y="-11" type="line"/>
      <point x="19" y="38" type="line"/>
      <point x="146" y="247" type="line" smooth="yes"/>
      <point x="167" y="281"/>
      <point x="166" y="313" type="qcurve" smooth="yes"/>
      <point x="166" y="330" type="line" smooth="yes"/>
      <point x="167" y="374"/>
    </contour>
  </outline>
</glyph>
<glyph name="two.sups" format="2">
  <advance width="277"/>
  <outline>
    <contour>
      <point x="33" y="502" type="line"/>
      <point x="151" y="684" type="line" smooth="yes"/>
      <point x="159" y="697"/>
      <point x="165" y="708"/>
      <point x="168" y="718" type="curve" smooth="yes"/>
      <point x="171" y="727"/>
      <point x="173" y="738"/>
      <point x="173" y="751" type="curve" smooth="yes"/>
      <point x="173" y="771" type="line" smooth="yes"/>
      <point x="173" y="784"/>
      <point x="170" y="794"/>
      <point x="165" y="802" type="curve" smooth="yes"/>
      <point x="159" y="809"/>
      <point x="150" y="813"/>
      <point x="138" y="813" type="curve" smooth="yes"/>
      <point x="115" y="813"/>
      <point x="103" y="797"/>
      <point x="103" y="766" type="curve" smooth="yes"/>
      <point x="103" y="743" type="line"/>
      <point x="35" y="743" type="line"/>
      <point x="35" y="774" type="line" smooth="yes"/>
      <point x="35" y="805"/>
      <point x="45" y="829"/>
      <point x="64" y="848" type="curve" smooth="yes"/>
      <point x="83" y="867"/>
      <point x="108" y="876"/>
      <point x="140" y="876" type="curve" smooth="yes"/>
      <point x="171" y="876"/>
      <point x="197" y="867"/>
      <point x="216" y="848" type="curve" smooth="yes"/>
      <point x="235" y="829"/>
      <point x="244" y="804"/>
      <point x="244" y="773" type="curve" smooth="yes"/>
      <point x="244" y="749" type="line" smooth="yes"/>
      <point x="244" y="731"/>
      <point x="241" y="715"/>
      <point x="236" y="701" type="curve" smooth="yes"/>
      <point x="230" y="686"/>
      <point x="221" y="670"/>
      <point x="210" y="652" type="curve" smooth="yes"/>
      <point x="115" y="504" type="line"/>
      <point x="244" y="504" type="line"/>
      <point x="244" y="440" type="line"/>
      <point x="33" y="440" type="line"/>
    </contour>
  </outline>
</glyph>
<glyph name="zero.dnom" format="2">
  <advance width="263"/>
  <outline>
    <contour>
      <point x="242" y="106" type="line" smooth="yes"/>
      <point x="242" y="-16"/>
      <point x="132" y="-17" type="qcurve" smooth="yes"/>
      <point x="71" y="-17"/>
      <point x="43" y="23" type="qcurve" smooth="yes"/>
      <point x="22" y="53"/>
      <point x="22" y="106" type="qcurve" smooth="yes"/>
      <point x="22" y="314" type="line" smooth="yes"/>
      <point x="22" y="436"/>
      <point x="132" y="437" type="qcurve" smooth="yes"/>
      <point x="241" y="437"/>
      <point x="242" y="316" type="qcurve" smooth="yes"/>
      <point x="242" y="315"/>
      <point x="242" y="314" type="qcurve" smooth="yes"/>
    </contour>
    <contour>
      <point x="170" y="112" type="qcurve" smooth="yes"/>
      <point x="170" y="307" type="line" smooth="yes"/>
      <point x="170" y="347"/>
      <point x="162" y="361" type="qcurve" smooth="yes"/>
      <point x="154" y="374"/>
      <point x="132" y="374" type="qcurve" smooth="yes"/>
      <point x="111" y="374"/>
      <point x="103" y="361" type="qcurve" smooth="yes"/>
      <point x="94" y="348"/>
      <point x="94" y="307" type="qcurve" smooth="yes"/>
      <point x="94" y="112" type="line" smooth="yes"/>
      <point x="94" y="72"/>
      <point x="103" y="59" type="qcurve" smooth="yes"/>
      <point x="112" y="46"/>
      <point x="132" y="45" type="qcurve" smooth="yes"/>
      <point x="153" y="45"/>
      <point x="162" y="59" type="qcurve" smooth="yes"/>
      <point x="170" y="72"/>
    </contour>
  </outline>
</glyph>
<glyph name="zero.sups" format="2">
  <advance width="281"/>
  <outline>
    <contour>
      <point x="34" y="564" type="curve" smooth="yes"/>
      <point x="34" y="750" type="line" smooth="yes"/>
      <point x="34" y="793"/>
      <point x="43" y="826"/>
      <point x="61" y="847" type="curve" smooth="yes"/>
      <point x="78" y="868"/>
      <point x="105" y="878"/>
      <point x="141" y="878" type="curve" smooth="yes"/>
      <point x="178" y="878"/>
      <point x="205" y="867"/>
      <point x="223" y="846" type="curve" smooth="yes"/>
      <point x="240" y="825"/>
      <point x="249" y="793"/>
      <point x="249" y="750" type="curve" smooth="yes"/>
      <point x="249" y="564" type="line" smooth="yes"/>
      <point x="249" y="520"/>
      <point x="240" y="487"/>
      <point x="223" y="466" type="curve" smooth="yes"/>
      <point x="206" y="445"/>
      <point x="178" y="434"/>
      <point x="141" y="434" type="curve" smooth="yes"/>
      <point x="104" y="434"/>
      <point x="77" y="445"/>
      <point x="60" y="467" type="curve" smooth="yes"/>
      <point x="43" y="488"/>
      <point x="34" y="521"/>
    </contour>
    <contour>
      <point x="178" y="564" type="curve" smooth="yes"/>
      <point x="178" y="750" type="line" smooth="yes"/>
      <point x="178" y="773"/>
      <point x="175" y="790"/>
      <point x="170" y="800" type="curve" smooth="yes"/>
      <point x="165" y="809"/>
      <point x="155" y="814"/>
      <point x="141" y="814" type="curve" smooth="yes"/>
      <point x="128" y="814"/>
      <point x="118" y="809"/>
      <point x="113" y="799" type="curve" smooth="yes"/>
      <point x="107" y="789"/>
      <point x="104" y="773"/>
      <point x="104" y="750" type="curve" smooth="yes"/>
      <point x="104" y="564" type="line" smooth="yes"/>
      <point x="104" y="540"/>
      <point x="107" y="523"/>
      <point x="113" y="513" type="curve" smooth="yes"/>
      <point x="118" y="503"/>
      <point x="128" y="498"/>
      <point x="141" y="498" type="curve" smooth="yes"/>
      <point x="155" y="498"/>
      <point x="165" y="503"/>
      <point x="170" y="513" type="curve" smooth="yes"/>
      <point x="175" y="523"/>
      <point x="178" y="540"/>
    </contour>
  </outline>
</glyph>
